<svg width="1801" height="402" viewBox="0 0 1801 402" fill="none" xmlns="http://www.w3.org/2000/svg">
<path d="M1304.64 145.967C1324.23 145.967 1340.83 149.637 1354.44 156.95L1354.45 156.955C1368.32 164.005 1378.85 174.444 1386.04 188.285L1386.04 188.289C1393.24 201.872 1396.85 218.349 1396.85 237.743C1396.85 240.089 1396.72 242.572 1396.46 245.187L1396.46 245.211V245.235C1396.46 248.569 1393.66 251.045 1390.24 251.045H1259.62C1259.2 247.242 1258.99 243.206 1258.99 238.936C1259.13 232.175 1259.71 226.03 1260.74 220.497H1342.8C1342.89 221.873 1342.93 223.284 1342.93 224.73C1342.93 226.488 1342.44 228.789 1341.41 231.659L1341.4 231.673L1341.4 231.687C1341.34 231.9 1341.32 232.135 1341.39 232.364C1341.47 232.604 1341.64 232.774 1341.83 232.881C1342.18 233.073 1342.65 233.081 1343.08 233.035C1344 232.939 1345.24 232.547 1346.48 232.016C1347.73 231.481 1349.03 230.788 1350.04 230.061C1350.55 229.697 1351 229.316 1351.34 228.932C1351.68 228.556 1351.95 228.132 1352.02 227.683L1352.65 223.767C1353 221.526 1351.27 219.497 1349 219.497H1343.73C1343.19 212.706 1341.56 206.744 1338.83 201.623C1335.69 195.237 1331.1 190.175 1325.08 186.447C1319.04 182.711 1311.96 180.852 1303.87 180.852C1293.97 180.852 1285.59 183.103 1278.77 187.636C1272.41 191.775 1267.43 198.033 1263.8 206.372L1263.46 207.186L1263.45 207.192C1261.97 210.896 1260.79 214.998 1259.91 219.497H1252.54C1243.55 219.497 1236.27 226.783 1236.27 235.771C1236.27 244.758 1243.55 252.045 1252.54 252.045H1258.73C1259.49 258.347 1260.82 264.023 1262.75 269.069L1263.07 269.87L1263.07 269.883C1266.73 278.376 1272.09 284.9 1279.16 289.429C1286.24 293.958 1294.74 296.211 1304.64 296.211C1315.82 296.211 1325.35 294.094 1333.2 289.841L1333.2 289.838C1336.42 288.04 1339.42 285.906 1342.19 283.437L1342.74 282.938C1349.83 276.425 1359.38 272.299 1368.4 275.141L1372.12 276.312C1378.27 278.247 1382.78 282.804 1384.68 288.044C1386.57 293.274 1385.85 299.184 1381.53 303.9C1375.17 310.846 1367.95 316.629 1359.87 321.251L1359.09 321.693C1343.93 330.056 1325.65 334.251 1304.26 334.251C1284.93 334.251 1268.08 330.322 1253.68 322.48C1239.29 314.639 1228.11 303.797 1220.14 289.95C1212.43 275.841 1208.56 259.232 1208.56 240.107C1208.56 220.721 1212.43 204.115 1220.14 190.271L1220.13 190.27C1227.85 176.601 1238.59 165.999 1252.34 158.46L1253.68 157.74L1253.68 157.737C1268.08 149.896 1285.06 145.967 1304.64 145.967ZM1237.27 235.771C1237.27 227.335 1244.1 220.497 1252.54 220.497H1259.72C1258.7 226.048 1258.12 232.188 1257.99 238.915V238.926C1257.99 243.19 1258.2 247.23 1258.61 251.045H1252.54C1244.1 251.045 1237.27 244.206 1237.27 235.771ZM1343.93 224.73C1343.93 223.286 1343.89 221.875 1343.8 220.497H1349C1350.66 220.497 1351.92 221.976 1351.66 223.609L1351.03 227.524C1351.01 227.697 1350.88 227.948 1350.6 228.267C1350.32 228.577 1349.93 228.909 1349.46 229.247C1348.52 229.923 1347.29 230.584 1346.09 231.097C1344.88 231.613 1343.74 231.961 1342.98 232.041C1342.63 232.078 1342.44 232.047 1342.35 232.017C1342.35 232.005 1342.35 231.99 1342.36 231.973C1343.4 229.068 1343.93 226.649 1343.93 224.73Z" fill="black" stroke="black"/>
<path d="M1139.65 25.0359H1150.3C1161.6 25.0359 1170.76 34.1967 1170.76 45.4978V308.53C1170.76 319.831 1161.6 328.992 1150.3 328.992H1139.65C1128.34 328.992 1119.18 319.831 1119.18 308.53V45.4978C1119.18 34.1967 1128.34 25.0359 1139.65 25.0359Z" fill="black" stroke="black"/>
<path d="M958.486 146.765C973.607 146.765 986.881 150.539 998.328 158.07L998.332 158.073C1006.83 163.543 1013.97 170.728 1019.73 179.634V228.728C1018.62 222.537 1016.57 216.956 1013.59 211.988H1013.59C1009.23 204.306 1003.5 198.472 996.385 194.502L995.692 194.123C988.549 189.9 981.125 187.782 973.432 187.782C964.694 187.782 956.482 189.897 948.806 194.126C941.116 198.36 935.02 204.45 930.52 212.38C926.011 220.322 923.768 229.704 923.768 240.509C923.768 251.311 926.011 260.692 930.52 268.635C935.02 276.566 941.116 282.654 948.806 286.888C956.482 291.117 964.694 293.233 973.432 293.233C981.125 293.233 988.551 291.247 995.699 287.28L995.704 287.277C1003.13 283.041 1009.09 276.953 1013.59 269.026L1013.59 269.025C1016.57 264.058 1018.62 258.477 1019.73 252.286V301.381C1013.97 310.286 1006.83 317.472 998.332 322.942L998.328 322.944C986.881 330.477 973.607 334.249 958.486 334.249C943.626 334.249 929.548 330.607 916.249 323.316C903.379 316.261 892.947 306.032 884.956 292.614L884.19 291.305C876.116 277.26 872.065 260.335 872.065 240.509C872.065 220.416 876.117 203.494 884.188 189.713L884.19 189.709C892.277 175.646 902.964 164.982 916.249 157.699C929.548 150.408 943.626 146.765 958.486 146.765ZM1035.86 240.509C1035.86 259.821 1032.46 276.499 1025.68 290.553L1025.68 290.56C1024.17 293.814 1022.52 296.892 1020.73 299.796V181.219C1022.52 184.124 1024.17 187.201 1025.68 190.456L1025.69 190.467C1032.46 204.257 1035.86 220.93 1035.86 240.509ZM1036.86 240.509C1036.86 221.433 1033.65 205.039 1027.22 191.343L1026.58 190.025C1024.82 186.23 1022.87 182.669 1020.73 179.341V45.4978C1020.73 34.3734 1029.61 25.323 1040.67 25.0427L1041.2 25.0359H1050.4C1061.7 25.0359 1070.86 34.1967 1070.86 45.4978V309.861C1070.86 321.162 1061.7 330.323 1050.4 330.323H1041.2C1029.9 330.323 1020.73 321.162 1020.73 309.861V301.674C1022.87 298.345 1024.82 294.784 1026.58 290.988C1033.44 276.77 1036.86 259.937 1036.86 240.509Z" fill="black" stroke="black"/>
<path d="M687.468 151.224H697.854C709.156 151.224 718.316 160.385 718.316 171.686V260.357C718.316 272.163 720.668 281.415 725.437 288.056L725.442 288.064C730.251 294.495 737.973 297.662 748.485 297.662C755.837 297.662 762.171 296.213 767.465 293.292L767.472 293.288C773.012 290.113 777.241 285.741 780.149 280.181C783.324 274.611 784.899 267.996 784.899 260.357V171.686C784.899 160.385 794.06 151.224 805.361 151.224H813.797C825.096 151.224 834.259 160.385 834.259 171.686V310.777C834.259 321.728 825.638 330.737 814.699 331.22L810.335 331.413C804.303 331.679 798.68 328.369 795.984 322.966L795.979 322.954L795.973 322.943L795.728 322.526C793.14 318.289 788.672 316.184 783.942 315.926C779.066 315.659 773.863 317.349 770.028 320.732C767.597 322.877 765.015 324.795 762.284 326.489C753.53 331.653 742.821 334.251 730.138 334.251C709.225 334.251 693.543 328.336 682.996 316.585L682.498 316.02C672.19 303.868 667.006 287.161 667.006 265.839V171.686C667.006 160.385 676.167 151.224 687.468 151.224Z" fill="black" stroke="black"/>
<path d="M550.688 145.967C571.933 145.967 587.646 152.071 597.932 164.192L597.935 164.196C608.241 176.084 613.428 192.789 613.428 214.379V308.531C613.428 319.83 604.267 328.993 592.966 328.993H582.581C571.28 328.993 562.119 319.83 562.119 308.531V219.86C562.119 207.8 559.767 198.538 554.991 192.153C550.184 185.722 542.46 182.556 531.949 182.556C524.846 182.556 518.512 184.139 512.963 187.319C507.59 190.147 503.449 194.22 500.554 199.532L500.277 200.051C497.369 205.62 495.926 212.228 495.926 219.86V308.531C495.926 319.83 486.765 328.993 475.464 328.993H466.639C455.338 328.993 446.177 319.83 446.177 308.531V170.345C446.177 159.044 455.338 149.883 466.639 149.883H471.16C478.763 149.883 485.506 154.692 488.011 161.816L488.239 162.513L488.592 163.663C488.764 164.227 488.999 164.769 489.289 165.278C490.846 168.012 493.635 169.347 496.503 169.41C499.365 169.473 502.344 168.272 504.34 165.893C508.357 161.105 512.961 157.181 518.15 154.121L518.154 154.118C527.17 148.692 538.009 145.967 550.688 145.967Z" fill="black" stroke="black"/>
<path fill-rule="evenodd" clip-rule="evenodd" d="M234.21 20.853C248.128 15.9283 262.953 13.8141 277.821 14.7103C299.254 16.0033 319.849 23.4997 337.107 36.2877C354.364 49.0757 367.539 66.605 375.032 86.746C379.362 98.387 381.687 110.611 381.97 122.904H382V125.161C382 125.369 382 125.578 382 125.786V291.045C382 305.616 379.132 320.044 373.561 333.506C367.991 346.967 359.826 359.199 349.533 369.502C339.24 379.805 327.02 387.978 313.571 393.554C300.123 399.13 285.708 402 271.151 402C256.595 402 242.18 399.13 228.732 393.554C215.283 387.978 203.063 379.805 192.77 369.502C182.476 359.199 174.312 346.967 168.741 333.506C163.171 320.044 160.303 305.616 160.303 291.045V122.904H160.329C160.275 118.17 159.317 113.489 157.506 109.113C155.64 104.605 152.906 100.509 149.459 97.0587C146.012 93.608 141.921 90.8716 137.417 89.0042C132.914 87.1367 128.087 86.1757 123.212 86.1757C118.337 86.1757 113.51 87.1367 109.007 89.0042C104.503 90.8716 100.411 93.608 96.9648 97.0587C93.5174 100.509 90.7837 104.605 88.9181 109.113C87.1068 113.489 86.1492 118.17 86.0948 122.904H86.1204V310.675C86.1204 321.517 77.3404 330.306 66.5089 330.306C55.6773 330.306 46.8973 321.517 46.8973 310.675V122.904H46.8985C46.9537 113.018 48.9256 103.235 52.7066 94.0987C56.5419 84.8305 62.1627 76.4099 69.2493 69.3164C76.336 62.2229 84.7485 56.5966 94.0077 52.7576C103.266 48.9185 113.19 46.9427 123.212 46.9427C133.233 46.9427 143.158 48.9185 152.416 52.7576C161.675 56.5966 170.088 62.2229 177.174 69.3164C184.261 76.4099 189.882 84.8305 193.717 94.0987C197.498 103.235 199.47 113.018 199.525 122.904H199.527L199.527 123.331H199.527V291.045H199.567C199.567 300.454 201.418 309.772 205.015 318.466C208.613 327.159 213.886 335.058 220.533 341.712C227.181 348.366 235.072 353.644 243.757 357.245C252.442 360.846 261.751 362.699 271.151 362.699C280.552 362.699 289.861 360.846 298.546 357.245C307.231 353.644 315.122 348.366 321.77 341.712C328.417 335.058 333.69 327.159 337.288 318.466C340.885 309.772 342.736 300.454 342.736 291.045H342.776V123.353C342.713 122.778 342.665 122.201 342.634 121.624C342.248 114.424 340.776 107.287 338.237 100.461C333.398 87.4536 324.889 76.1327 313.745 67.875C302.6 59.6165 289.299 54.7755 275.459 53.9408C268.194 53.5021 260.945 54.1771 253.953 55.9098C243.429 58.5172 231.434 55.5223 226.076 46.0877C220.719 36.6522 223.988 24.4693 234.21 20.853ZM123.212 0C139.392 2.91351e-06 155.414 3.19039 170.363 9.38768C185.312 15.5858 198.895 24.6705 210.336 36.1228C221.777 47.5751 230.853 61.1714 237.045 76.1342C243.182 90.9664 246.368 106.853 246.423 122.904H246.424V291.045H246.309C246.309 294.31 246.952 297.544 248.2 300.561C249.448 303.577 251.278 306.319 253.585 308.628C255.892 310.937 258.631 312.769 261.644 314.018C264.658 315.268 267.889 315.911 271.151 315.911C274.414 315.911 277.645 315.268 280.659 314.018C283.672 312.769 286.411 310.937 288.718 308.628C291.025 306.319 292.855 303.577 294.103 300.561C295.351 297.544 295.994 294.31 295.994 291.045H295.879V123.897C295.55 122.557 295.271 121.22 295.027 119.917C294.036 114.633 291.903 108.215 287.946 104.581C283.988 100.946 278.96 98.6931 273.615 98.1605C264.836 97.2848 254.6 95.4967 250.037 87.9398L248.185 84.8731C242.598 75.622 245.584 63.2428 256.079 60.6951C263.038 59.006 270.275 58.4871 277.492 59.2075C291.251 60.5791 304.195 66.3778 314.383 75.7339C324.571 85.0891 331.456 97.4982 334.006 111.101C334.758 115.115 335.121 119.169 335.102 123.209V291.045C335.102 299.451 333.448 307.775 330.234 315.541C327.021 323.308 322.31 330.365 316.372 336.308C310.434 342.252 303.384 346.968 295.624 350.185C287.866 353.402 279.549 355.057 271.151 355.057C262.753 355.057 254.437 353.402 246.679 350.185C238.919 346.968 231.869 342.252 225.931 336.308C219.993 330.365 215.282 323.308 212.069 315.541C208.855 307.775 207.201 299.451 207.201 291.045V122.904H207.219C207.164 112.007 204.993 101.222 200.826 91.1516C196.604 80.9488 190.416 71.6789 182.615 63.8702C174.814 56.0623 165.553 49.8685 155.36 45.642C145.168 41.4163 134.244 39.2415 123.212 39.2415C112.18 39.2415 101.255 41.4163 91.0634 45.642C80.8705 49.8685 71.6096 56.0623 63.8085 63.8702C56.0082 71.6789 49.8203 80.9488 45.5978 91.1516C41.4306 101.222 39.2599 112.007 39.2047 122.904H39.2231V310.675H39.2402C39.2402 314.26 39.9454 317.809 41.3157 321.12C42.6859 324.432 44.6948 327.441 47.2272 329.975C49.7588 332.51 52.7654 334.521 56.0738 335.893C59.3822 337.264 62.9276 337.97 66.5089 337.97C70.0901 337.97 73.6356 337.264 76.9439 335.893C80.2523 334.521 83.2589 332.51 85.7905 329.975C88.3229 327.441 90.3318 324.432 91.7021 321.12C93.0723 317.809 93.7775 314.26 93.7775 310.675H93.7945V200.573C93.7945 189.731 102.575 180.943 113.406 180.943C124.238 180.943 133.018 189.731 133.018 200.573V310.675C133.018 319.418 131.297 328.075 127.955 336.151C124.613 344.229 119.713 351.567 113.537 357.749C107.361 363.931 100.03 368.835 91.9604 372.181C83.8916 375.526 75.2428 377.248 66.5089 377.248C57.7749 377.248 49.1262 375.526 41.0573 372.181C32.9876 368.835 25.6562 363.931 19.4803 357.749C13.3043 351.567 8.40484 344.229 5.06234 336.151C1.7207 328.075 0 319.418 0 310.675V122.904H0.000827547C0.0563159 106.853 3.24169 90.9664 9.3786 76.1342C15.5707 61.1714 24.6466 47.5751 36.0879 36.1228C47.5291 24.6705 61.1122 15.5858 76.0605 9.38768C91.0097 3.19039 107.032 0 123.212 0Z" fill="url(#paint0_linear_11_28)"/>
<rect x="1399.5" y="33.5" width="399" height="109" rx="54.5" stroke="black" stroke-width="5"/>
<mask id="path-8-outside-1_11_28" maskUnits="userSpaceOnUse" x="1460" y="63" width="283" height="64" fill="black">
<rect fill="white" x="1460" y="63" width="283" height="64"/>
<path d="M1501.98 80H1497.75C1497.7 78.4091 1497.39 76.9394 1496.8 75.5909C1496.2 74.2273 1495.38 73.0379 1494.32 72.0227C1493.26 71.0076 1491.99 70.2197 1490.52 69.6591C1489.07 69.0985 1487.44 68.8182 1485.64 68.8182C1482.67 68.8182 1479.83 69.5985 1477.11 71.1591C1474.4 72.7045 1472.07 74.9773 1470.11 77.9773C1468.16 80.9773 1466.83 84.6439 1466.11 88.9773C1465.4 93.25 1465.52 96.8485 1466.45 99.7727C1467.39 102.682 1468.93 104.886 1471.07 106.386C1473.22 107.886 1475.74 108.636 1478.64 108.636C1480.48 108.636 1482.26 108.356 1483.95 107.795C1485.65 107.235 1487.21 106.455 1488.64 105.455C1490.06 104.439 1491.31 103.25 1492.39 101.886C1493.46 100.523 1494.3 99.0455 1494.89 97.4545H1499.16C1498.42 99.5909 1497.38 101.583 1496.05 103.432C1494.71 105.265 1493.14 106.871 1491.32 108.25C1489.52 109.629 1487.52 110.705 1485.34 111.477C1483.17 112.25 1480.87 112.636 1478.43 112.636C1474.46 112.636 1471.11 111.644 1468.36 109.659C1465.64 107.674 1463.7 104.879 1462.55 101.273C1461.41 97.6515 1461.25 93.3864 1462.07 88.4773C1462.87 83.6591 1464.41 79.4773 1466.68 75.9318C1468.97 72.3864 1471.77 69.6515 1475.09 67.7273C1478.41 65.7879 1482.02 64.8182 1485.91 64.8182C1488.39 64.8182 1490.62 65.2045 1492.59 65.9773C1494.56 66.7348 1496.23 67.8106 1497.61 69.2045C1499.01 70.5833 1500.08 72.1894 1500.82 74.0227C1501.56 75.8561 1501.95 77.8485 1501.98 80ZM1519.6 112.727C1516.54 112.727 1513.96 111.955 1511.87 110.409C1509.78 108.848 1508.3 106.689 1507.44 103.932C1506.57 101.174 1506.43 97.9924 1507.01 94.3864C1507.58 90.8712 1508.73 87.7803 1510.44 85.1136C1512.16 82.4318 1514.29 80.3485 1516.8 78.8636C1519.32 77.3636 1522.05 76.6136 1525.01 76.6136C1528.08 76.6136 1530.66 77.3939 1532.73 78.9545C1534.82 80.5152 1536.3 82.6742 1537.16 85.4318C1538.04 88.1894 1538.2 91.3788 1537.62 95C1537.04 98.5 1535.89 101.583 1534.16 104.25C1532.44 106.902 1530.32 108.977 1527.8 110.477C1525.3 111.977 1522.57 112.727 1519.6 112.727ZM1519.64 109.023C1522.13 109.023 1524.34 108.364 1526.28 107.045C1528.23 105.712 1529.85 103.939 1531.12 101.727C1532.39 99.5 1533.25 97.053 1533.69 94.3864C1534.1 91.8409 1534.05 89.5 1533.55 87.3636C1533.05 85.2273 1532.09 83.5152 1530.66 82.2273C1529.24 80.9394 1527.35 80.2955 1524.98 80.2955C1522.51 80.2955 1520.3 80.9697 1518.35 82.3182C1516.39 83.6515 1514.78 85.4394 1513.51 87.6818C1512.23 89.9091 1511.38 92.3485 1510.96 95C1510.54 97.5606 1510.57 99.9015 1511.05 102.023C1511.55 104.144 1512.51 105.841 1513.94 107.114C1515.38 108.386 1517.28 109.023 1519.64 109.023ZM1543.68 112L1549.5 77.0909H1553.43L1552.52 82.4545H1552.89C1553.9 80.6515 1555.31 79.2348 1557.11 78.2045C1558.92 77.1591 1560.96 76.6364 1563.25 76.6364C1565.64 76.6364 1567.52 77.2045 1568.89 78.3409C1570.25 79.4621 1571.16 81.0076 1571.61 82.9773H1571.91C1573 81.0379 1574.54 79.5 1576.52 78.3636C1578.51 77.2121 1580.77 76.6364 1583.32 76.6364C1586.55 76.6364 1588.93 77.6591 1590.48 79.7045C1592.02 81.75 1592.47 84.7197 1591.82 88.6136L1587.91 112H1583.86L1587.77 88.6136C1588.21 85.8561 1587.86 83.7879 1586.7 82.4091C1585.55 81.0303 1583.83 80.3409 1581.52 80.3409C1578.86 80.3409 1576.65 81.1591 1574.91 82.7955C1573.18 84.4167 1572.11 86.4924 1571.7 89.0227L1567.86 112H1563.73L1567.7 88.25C1568.08 85.8864 1567.74 83.9773 1566.68 82.5227C1565.64 81.0682 1563.92 80.3409 1561.52 80.3409C1559.9 80.3409 1558.38 80.7424 1556.95 81.5455C1555.55 82.3333 1554.35 83.4318 1553.36 84.8409C1552.39 86.2348 1551.76 87.8333 1551.45 89.6364L1547.73 112H1543.68ZM1596.44 125.091L1604.48 77.0909H1608.41L1607.32 83.75H1607.8C1608.44 82.7045 1609.26 81.6288 1610.28 80.5227C1611.31 79.4167 1612.59 78.4924 1614.12 77.75C1615.66 76.9924 1617.51 76.6136 1619.66 76.6136C1622.54 76.6136 1624.93 77.3636 1626.82 78.8636C1628.73 80.3636 1630.07 82.4697 1630.82 85.1818C1631.6 87.8939 1631.68 91.0455 1631.07 94.6364C1630.48 98.2424 1629.35 101.402 1627.69 104.114C1626.02 106.826 1623.98 108.939 1621.57 110.455C1619.18 111.97 1616.56 112.727 1613.71 112.727C1611.6 112.727 1609.9 112.348 1608.6 111.591C1607.31 110.833 1606.32 109.902 1605.64 108.795C1604.96 107.674 1604.47 106.583 1604.16 105.523H1603.8L1600.53 125.091H1596.44ZM1605.57 94.5682C1605.12 97.3864 1605.12 99.8864 1605.57 102.068C1606.03 104.235 1606.95 105.939 1608.32 107.182C1609.7 108.409 1611.52 109.023 1613.78 109.023C1616.1 109.023 1618.16 108.386 1619.98 107.114C1621.8 105.826 1623.32 104.091 1624.53 101.909C1625.74 99.7273 1626.57 97.2803 1627.03 94.5682C1627.45 91.8864 1627.44 89.4697 1626.98 87.3182C1626.53 85.1667 1625.62 83.4621 1624.26 82.2045C1622.89 80.9318 1621.04 80.2955 1618.69 80.2955C1616.41 80.2955 1614.37 80.9091 1612.55 82.1364C1610.75 83.3485 1609.25 85.0303 1608.05 87.1818C1606.85 89.3182 1606.03 91.7803 1605.57 94.5682ZM1646.72 112.795C1644.61 112.795 1642.75 112.386 1641.15 111.568C1639.54 110.735 1638.34 109.538 1637.56 107.977C1636.78 106.402 1636.57 104.492 1636.92 102.25C1637.22 100.523 1637.8 99.0682 1638.65 97.8864C1639.51 96.7045 1640.6 95.7348 1641.92 94.9773C1643.24 94.2045 1644.75 93.5985 1646.47 93.1591C1648.18 92.7197 1650.04 92.3864 1652.06 92.1591C1654.03 91.9167 1655.71 91.7045 1657.1 91.5227C1658.5 91.3409 1659.58 91.053 1660.35 90.6591C1661.13 90.2652 1661.59 89.6288 1661.74 88.75L1661.88 87.9318C1662.27 85.553 1661.91 83.6818 1660.78 82.3182C1659.66 80.9394 1657.78 80.25 1655.15 80.25C1652.63 80.25 1650.45 80.8106 1648.6 81.9318C1646.77 83.0379 1645.41 84.3333 1644.51 85.8182L1640.92 84.4318C1642.01 82.5227 1643.35 81 1644.94 79.8636C1646.53 78.7121 1648.24 77.8864 1650.06 77.3864C1651.88 76.8712 1653.67 76.6136 1655.44 76.6136C1656.78 76.6136 1658.13 76.7879 1659.51 77.1364C1660.89 77.4848 1662.13 78.0909 1663.22 78.9545C1664.32 79.803 1665.13 80.9924 1665.65 82.5227C1666.18 84.0379 1666.25 85.9621 1665.88 88.2955L1661.92 112H1657.88L1658.81 106.477H1658.56C1657.92 107.508 1657.04 108.508 1655.92 109.477C1654.81 110.447 1653.49 111.242 1651.94 111.864C1650.4 112.485 1648.66 112.795 1646.72 112.795ZM1647.74 109.091C1649.89 109.091 1651.84 108.614 1653.58 107.659C1655.34 106.705 1656.78 105.439 1657.9 103.864C1659.03 102.273 1659.76 100.523 1660.08 98.6136L1660.92 93.5682C1660.59 93.8561 1660.04 94.1136 1659.28 94.3409C1658.54 94.5682 1657.7 94.7727 1656.76 94.9545C1655.84 95.1212 1654.91 95.2652 1653.97 95.3864C1653.04 95.5076 1652.22 95.6136 1651.51 95.7045C1649.5 95.947 1647.74 96.3258 1646.24 96.8409C1644.75 97.3561 1643.56 98.0682 1642.67 98.9773C1641.78 99.8712 1641.22 101.023 1640.99 102.432C1640.64 104.553 1641.1 106.197 1642.38 107.364C1643.66 108.515 1645.45 109.091 1647.74 109.091ZM1680.34 90.1818L1676.73 112H1672.68L1678.5 77.0909H1682.43L1681.52 82.5682H1681.89C1682.98 80.7803 1684.48 79.3485 1686.41 78.2727C1688.35 77.1818 1690.6 76.6364 1693.16 76.6364C1695.49 76.6364 1697.46 77.1288 1699.07 78.1136C1700.69 79.0833 1701.84 80.5152 1702.52 82.4091C1703.22 84.303 1703.34 86.6288 1702.89 89.3864L1699.09 112H1695.05L1698.77 89.6364C1699.24 86.7879 1698.83 84.5303 1697.52 82.8636C1696.23 81.1818 1694.24 80.3409 1691.55 80.3409C1689.71 80.3409 1688.01 80.7348 1686.43 81.5227C1684.87 82.3106 1683.55 83.447 1682.48 84.9318C1681.4 86.4015 1680.69 88.1515 1680.34 90.1818ZM1709.18 125.091C1708.37 125.091 1707.63 125.015 1706.95 124.864C1706.28 124.712 1705.76 124.545 1705.38 124.364L1707.09 120.795C1708.36 121.235 1709.52 121.371 1710.59 121.205C1711.66 121.053 1712.68 120.538 1713.65 119.659C1714.62 118.78 1715.58 117.47 1716.52 115.727L1718.43 112.182L1711.52 77.0909H1715.72L1721.18 106.727H1721.47L1736.77 77.0909H1741.34L1719.86 117.477C1718.93 119.22 1717.91 120.652 1716.79 121.773C1715.68 122.894 1714.49 123.727 1713.2 124.273C1711.93 124.818 1710.59 125.091 1709.18 125.091Z"/>
</mask>
<path d="M1501.98 80H1497.75C1497.7 78.4091 1497.39 76.9394 1496.8 75.5909C1496.2 74.2273 1495.38 73.0379 1494.32 72.0227C1493.26 71.0076 1491.99 70.2197 1490.52 69.6591C1489.07 69.0985 1487.44 68.8182 1485.64 68.8182C1482.67 68.8182 1479.83 69.5985 1477.11 71.1591C1474.4 72.7045 1472.07 74.9773 1470.11 77.9773C1468.16 80.9773 1466.83 84.6439 1466.11 88.9773C1465.4 93.25 1465.52 96.8485 1466.45 99.7727C1467.39 102.682 1468.93 104.886 1471.07 106.386C1473.22 107.886 1475.74 108.636 1478.64 108.636C1480.48 108.636 1482.26 108.356 1483.95 107.795C1485.65 107.235 1487.21 106.455 1488.64 105.455C1490.06 104.439 1491.31 103.25 1492.39 101.886C1493.46 100.523 1494.3 99.0455 1494.89 97.4545H1499.16C1498.42 99.5909 1497.38 101.583 1496.05 103.432C1494.71 105.265 1493.14 106.871 1491.32 108.25C1489.52 109.629 1487.52 110.705 1485.34 111.477C1483.17 112.25 1480.87 112.636 1478.43 112.636C1474.46 112.636 1471.11 111.644 1468.36 109.659C1465.64 107.674 1463.7 104.879 1462.55 101.273C1461.41 97.6515 1461.25 93.3864 1462.07 88.4773C1462.87 83.6591 1464.41 79.4773 1466.68 75.9318C1468.97 72.3864 1471.77 69.6515 1475.09 67.7273C1478.41 65.7879 1482.02 64.8182 1485.91 64.8182C1488.39 64.8182 1490.62 65.2045 1492.59 65.9773C1494.56 66.7348 1496.23 67.8106 1497.61 69.2045C1499.01 70.5833 1500.08 72.1894 1500.82 74.0227C1501.56 75.8561 1501.95 77.8485 1501.98 80ZM1519.6 112.727C1516.54 112.727 1513.96 111.955 1511.87 110.409C1509.78 108.848 1508.3 106.689 1507.44 103.932C1506.57 101.174 1506.43 97.9924 1507.01 94.3864C1507.58 90.8712 1508.73 87.7803 1510.44 85.1136C1512.16 82.4318 1514.29 80.3485 1516.8 78.8636C1519.32 77.3636 1522.05 76.6136 1525.01 76.6136C1528.08 76.6136 1530.66 77.3939 1532.73 78.9545C1534.82 80.5152 1536.3 82.6742 1537.16 85.4318C1538.04 88.1894 1538.2 91.3788 1537.62 95C1537.04 98.5 1535.89 101.583 1534.16 104.25C1532.44 106.902 1530.32 108.977 1527.8 110.477C1525.3 111.977 1522.57 112.727 1519.6 112.727ZM1519.64 109.023C1522.13 109.023 1524.34 108.364 1526.28 107.045C1528.23 105.712 1529.85 103.939 1531.12 101.727C1532.39 99.5 1533.25 97.053 1533.69 94.3864C1534.1 91.8409 1534.05 89.5 1533.55 87.3636C1533.05 85.2273 1532.09 83.5152 1530.66 82.2273C1529.24 80.9394 1527.35 80.2955 1524.98 80.2955C1522.51 80.2955 1520.3 80.9697 1518.35 82.3182C1516.39 83.6515 1514.78 85.4394 1513.51 87.6818C1512.23 89.9091 1511.38 92.3485 1510.96 95C1510.54 97.5606 1510.57 99.9015 1511.05 102.023C1511.55 104.144 1512.51 105.841 1513.94 107.114C1515.38 108.386 1517.28 109.023 1519.64 109.023ZM1543.68 112L1549.5 77.0909H1553.43L1552.52 82.4545H1552.89C1553.9 80.6515 1555.31 79.2348 1557.11 78.2045C1558.92 77.1591 1560.96 76.6364 1563.25 76.6364C1565.64 76.6364 1567.52 77.2045 1568.89 78.3409C1570.25 79.4621 1571.16 81.0076 1571.61 82.9773H1571.91C1573 81.0379 1574.54 79.5 1576.52 78.3636C1578.51 77.2121 1580.77 76.6364 1583.32 76.6364C1586.55 76.6364 1588.93 77.6591 1590.48 79.7045C1592.02 81.75 1592.47 84.7197 1591.82 88.6136L1587.91 112H1583.86L1587.77 88.6136C1588.21 85.8561 1587.86 83.7879 1586.7 82.4091C1585.55 81.0303 1583.83 80.3409 1581.52 80.3409C1578.86 80.3409 1576.65 81.1591 1574.91 82.7955C1573.18 84.4167 1572.11 86.4924 1571.7 89.0227L1567.86 112H1563.73L1567.7 88.25C1568.08 85.8864 1567.74 83.9773 1566.68 82.5227C1565.64 81.0682 1563.92 80.3409 1561.52 80.3409C1559.9 80.3409 1558.38 80.7424 1556.95 81.5455C1555.55 82.3333 1554.35 83.4318 1553.36 84.8409C1552.39 86.2348 1551.76 87.8333 1551.45 89.6364L1547.73 112H1543.68ZM1596.44 125.091L1604.48 77.0909H1608.41L1607.32 83.75H1607.8C1608.44 82.7045 1609.26 81.6288 1610.28 80.5227C1611.31 79.4167 1612.59 78.4924 1614.12 77.75C1615.66 76.9924 1617.51 76.6136 1619.66 76.6136C1622.54 76.6136 1624.93 77.3636 1626.82 78.8636C1628.73 80.3636 1630.07 82.4697 1630.82 85.1818C1631.6 87.8939 1631.68 91.0455 1631.07 94.6364C1630.48 98.2424 1629.35 101.402 1627.69 104.114C1626.02 106.826 1623.98 108.939 1621.57 110.455C1619.18 111.97 1616.56 112.727 1613.71 112.727C1611.6 112.727 1609.9 112.348 1608.6 111.591C1607.31 110.833 1606.32 109.902 1605.64 108.795C1604.96 107.674 1604.47 106.583 1604.16 105.523H1603.8L1600.53 125.091H1596.44ZM1605.57 94.5682C1605.12 97.3864 1605.12 99.8864 1605.57 102.068C1606.03 104.235 1606.95 105.939 1608.32 107.182C1609.7 108.409 1611.52 109.023 1613.78 109.023C1616.1 109.023 1618.16 108.386 1619.98 107.114C1621.8 105.826 1623.32 104.091 1624.53 101.909C1625.74 99.7273 1626.57 97.2803 1627.03 94.5682C1627.45 91.8864 1627.44 89.4697 1626.98 87.3182C1626.53 85.1667 1625.62 83.4621 1624.26 82.2045C1622.89 80.9318 1621.04 80.2955 1618.69 80.2955C1616.41 80.2955 1614.37 80.9091 1612.55 82.1364C1610.75 83.3485 1609.25 85.0303 1608.05 87.1818C1606.85 89.3182 1606.03 91.7803 1605.57 94.5682ZM1646.72 112.795C1644.61 112.795 1642.75 112.386 1641.15 111.568C1639.54 110.735 1638.34 109.538 1637.56 107.977C1636.78 106.402 1636.57 104.492 1636.92 102.25C1637.22 100.523 1637.8 99.0682 1638.65 97.8864C1639.51 96.7045 1640.6 95.7348 1641.92 94.9773C1643.24 94.2045 1644.75 93.5985 1646.47 93.1591C1648.18 92.7197 1650.04 92.3864 1652.06 92.1591C1654.03 91.9167 1655.71 91.7045 1657.1 91.5227C1658.5 91.3409 1659.58 91.053 1660.35 90.6591C1661.13 90.2652 1661.59 89.6288 1661.74 88.75L1661.88 87.9318C1662.27 85.553 1661.91 83.6818 1660.78 82.3182C1659.66 80.9394 1657.78 80.25 1655.15 80.25C1652.63 80.25 1650.45 80.8106 1648.6 81.9318C1646.77 83.0379 1645.41 84.3333 1644.51 85.8182L1640.92 84.4318C1642.01 82.5227 1643.35 81 1644.94 79.8636C1646.53 78.7121 1648.24 77.8864 1650.06 77.3864C1651.88 76.8712 1653.67 76.6136 1655.44 76.6136C1656.78 76.6136 1658.13 76.7879 1659.51 77.1364C1660.89 77.4848 1662.13 78.0909 1663.22 78.9545C1664.32 79.803 1665.13 80.9924 1665.65 82.5227C1666.18 84.0379 1666.25 85.9621 1665.88 88.2955L1661.92 112H1657.88L1658.81 106.477H1658.56C1657.92 107.508 1657.04 108.508 1655.92 109.477C1654.81 110.447 1653.49 111.242 1651.94 111.864C1650.4 112.485 1648.66 112.795 1646.72 112.795ZM1647.74 109.091C1649.89 109.091 1651.84 108.614 1653.58 107.659C1655.34 106.705 1656.78 105.439 1657.9 103.864C1659.03 102.273 1659.76 100.523 1660.08 98.6136L1660.92 93.5682C1660.59 93.8561 1660.04 94.1136 1659.28 94.3409C1658.54 94.5682 1657.7 94.7727 1656.76 94.9545C1655.84 95.1212 1654.91 95.2652 1653.97 95.3864C1653.04 95.5076 1652.22 95.6136 1651.51 95.7045C1649.5 95.947 1647.74 96.3258 1646.24 96.8409C1644.75 97.3561 1643.56 98.0682 1642.67 98.9773C1641.78 99.8712 1641.22 101.023 1640.99 102.432C1640.64 104.553 1641.1 106.197 1642.38 107.364C1643.66 108.515 1645.45 109.091 1647.74 109.091ZM1680.34 90.1818L1676.73 112H1672.68L1678.5 77.0909H1682.43L1681.52 82.5682H1681.89C1682.98 80.7803 1684.48 79.3485 1686.41 78.2727C1688.35 77.1818 1690.6 76.6364 1693.16 76.6364C1695.49 76.6364 1697.46 77.1288 1699.07 78.1136C1700.69 79.0833 1701.84 80.5152 1702.52 82.4091C1703.22 84.303 1703.34 86.6288 1702.89 89.3864L1699.09 112H1695.05L1698.77 89.6364C1699.24 86.7879 1698.83 84.5303 1697.52 82.8636C1696.23 81.1818 1694.24 80.3409 1691.55 80.3409C1689.71 80.3409 1688.01 80.7348 1686.43 81.5227C1684.87 82.3106 1683.55 83.447 1682.48 84.9318C1681.4 86.4015 1680.69 88.1515 1680.34 90.1818ZM1709.18 125.091C1708.37 125.091 1707.63 125.015 1706.95 124.864C1706.28 124.712 1705.76 124.545 1705.38 124.364L1707.09 120.795C1708.36 121.235 1709.52 121.371 1710.59 121.205C1711.66 121.053 1712.68 120.538 1713.65 119.659C1714.62 118.78 1715.58 117.47 1716.52 115.727L1718.43 112.182L1711.52 77.0909H1715.72L1721.18 106.727H1721.47L1736.77 77.0909H1741.34L1719.86 117.477C1718.93 119.22 1717.91 120.652 1716.79 121.773C1715.68 122.894 1714.49 123.727 1713.2 124.273C1711.93 124.818 1710.59 125.091 1709.18 125.091Z" fill="black"/>
<path d="M1501.98 80V81H1502.99L1502.98 79.9859L1501.98 80ZM1497.75 80L1496.75 80.0286L1496.78 81H1497.75V80ZM1496.8 75.5909L1495.88 75.9885L1495.88 75.9923L1496.8 75.5909ZM1494.32 72.0227L1493.63 72.7451V72.7451L1494.32 72.0227ZM1490.52 69.6591L1490.16 70.5922L1490.17 70.5934L1490.52 69.6591ZM1477.11 71.1591L1477.61 72.0279L1477.61 72.0258L1477.11 71.1591ZM1466.11 88.9773L1467.1 89.1417L1467.1 89.1394L1466.11 88.9773ZM1466.45 99.7727L1465.5 100.079L1465.5 100.08L1466.45 99.7727ZM1471.07 106.386L1470.49 107.205L1470.5 107.207L1471.07 106.386ZM1488.64 105.455L1489.21 106.273L1489.22 106.269L1488.64 105.455ZM1492.39 101.886L1491.6 101.267V101.267L1492.39 101.886ZM1494.89 97.4545V96.4545H1494.19L1493.95 97.1064L1494.89 97.4545ZM1499.16 97.4545L1500.1 97.7828L1500.57 96.4545H1499.16V97.4545ZM1496.05 103.432L1496.85 104.02L1496.86 104.017L1496.05 103.432ZM1491.32 108.25L1490.71 107.453L1490.71 107.456L1491.32 108.25ZM1485.34 111.477L1485.01 110.535L1485 110.535L1485.34 111.477ZM1468.36 109.659L1467.78 110.468L1467.78 110.469L1468.36 109.659ZM1462.55 101.273L1461.59 101.572L1461.59 101.577L1462.55 101.273ZM1462.07 88.4773L1461.08 88.3129L1462.07 88.4773ZM1466.68 75.9318L1465.84 75.3896L1465.84 75.3922L1466.68 75.9318ZM1475.09 67.7273L1475.59 68.5923L1475.6 68.5906L1475.09 67.7273ZM1492.59 65.9773L1492.23 66.9082L1492.23 66.9106L1492.59 65.9773ZM1497.61 69.2045L1496.9 69.9078L1496.91 69.9155L1497.61 69.2045ZM1501.98 80V79H1497.75V80V81H1501.98V80ZM1497.75 80L1498.75 79.9714C1498.7 78.2625 1498.36 76.665 1497.71 75.1895L1496.8 75.5909L1495.88 75.9923C1496.41 77.2138 1496.71 78.5556 1496.75 80.0286L1497.75 80ZM1496.8 75.5909L1497.71 75.1933C1497.07 73.709 1496.17 72.4087 1495.01 71.3003L1494.32 72.0227L1493.63 72.7451C1494.59 73.667 1495.34 74.7456 1495.88 75.9885L1496.8 75.5909ZM1494.32 72.0227L1495.01 71.3003C1493.85 70.1864 1492.46 69.3295 1490.88 68.7248L1490.52 69.6591L1490.17 70.5934C1491.52 71.1099 1492.67 71.8287 1493.63 72.7451L1494.32 72.0227ZM1490.52 69.6591L1490.88 68.726C1489.3 68.1148 1487.54 67.8182 1485.64 67.8182V68.8182V69.8182C1487.34 69.8182 1488.84 70.0822 1490.16 70.5922L1490.52 69.6591ZM1485.64 68.8182V67.8182C1482.48 67.8182 1479.47 68.6493 1476.61 70.2923L1477.11 71.1591L1477.61 72.0258C1480.18 70.5477 1482.85 69.8182 1485.64 69.8182V68.8182ZM1477.11 71.1591L1476.62 70.2902C1473.75 71.9254 1471.3 74.3177 1469.28 77.4314L1470.11 77.9773L1470.95 78.5232C1472.83 75.6368 1475.05 73.4837 1477.61 72.0279L1477.11 71.1591ZM1470.11 77.9773L1469.28 77.4314C1467.23 80.5708 1465.86 84.3751 1465.13 88.8151L1466.11 88.9773L1467.1 89.1394C1467.79 84.9127 1469.09 81.3838 1470.95 78.5232L1470.11 77.9773ZM1466.11 88.9773L1465.13 88.8129C1464.4 93.1823 1464.5 96.9532 1465.5 100.079L1466.45 99.7727L1467.41 99.4669C1466.53 96.7437 1466.4 93.3177 1467.1 89.1417L1466.11 88.9773ZM1466.45 99.7727L1465.5 100.08C1466.5 103.159 1468.15 105.559 1470.49 107.205L1471.07 106.386L1471.64 105.568C1469.71 104.213 1468.29 102.204 1467.41 99.4654L1466.45 99.7727ZM1471.07 106.386L1470.5 107.207C1472.83 108.836 1475.56 109.636 1478.64 109.636V108.636V107.636C1475.92 107.636 1473.61 106.937 1471.64 105.566L1471.07 106.386ZM1478.64 108.636V109.636C1480.59 109.636 1482.47 109.34 1484.27 108.745L1483.95 107.795L1483.64 106.846C1482.05 107.372 1480.38 107.636 1478.64 107.636V108.636ZM1483.95 107.795L1484.27 108.745C1486.06 108.155 1487.7 107.331 1489.21 106.273L1488.64 105.455L1488.06 104.636C1486.72 105.578 1485.25 106.315 1483.64 106.846L1483.95 107.795ZM1488.64 105.455L1489.22 106.269C1490.72 105.199 1492.04 103.944 1493.17 102.506L1492.39 101.886L1491.6 101.267C1490.58 102.556 1489.4 103.68 1488.06 104.64L1488.64 105.455ZM1492.39 101.886L1493.17 102.506C1494.31 101.062 1495.2 99.4937 1495.82 97.8027L1494.89 97.4545L1493.95 97.1064C1493.4 98.5972 1492.61 99.9833 1491.6 101.267L1492.39 101.886ZM1494.89 97.4545V98.4545H1499.16V97.4545V96.4545H1494.89V97.4545ZM1499.16 97.4545L1498.21 97.1263C1497.5 99.1703 1496.51 101.076 1495.23 102.847L1496.05 103.432L1496.86 104.017C1498.25 102.09 1499.33 100.011 1500.1 97.7828L1499.16 97.4545ZM1496.05 103.432L1495.24 102.844C1493.96 104.597 1492.45 106.133 1490.71 107.453L1491.32 108.25L1491.92 109.047C1493.82 107.609 1495.46 105.933 1496.85 104.02L1496.05 103.432ZM1491.32 108.25L1490.71 107.456C1488.99 108.77 1487.09 109.796 1485.01 110.535L1485.34 111.477L1485.67 112.42C1487.95 111.613 1490.04 110.488 1491.93 109.044L1491.32 108.25ZM1485.34 111.477L1485 110.535C1482.95 111.267 1480.76 111.636 1478.43 111.636V112.636V113.636C1480.98 113.636 1483.4 113.233 1485.68 112.419L1485.34 111.477ZM1478.43 112.636V111.636C1474.64 111.636 1471.49 110.69 1468.95 108.849L1468.36 109.659L1467.78 110.469C1470.72 112.598 1474.29 113.636 1478.43 113.636V112.636ZM1468.36 109.659L1468.95 108.851C1466.42 107.006 1464.59 104.398 1463.5 100.969L1462.55 101.273L1461.59 101.577C1462.8 105.36 1464.86 108.343 1467.78 110.468L1468.36 109.659ZM1462.55 101.273L1463.5 100.973C1462.42 97.5413 1462.25 93.4422 1463.05 88.6417L1462.07 88.4773L1461.08 88.3129C1460.25 93.3305 1460.4 97.7618 1461.59 101.572L1462.55 101.273ZM1462.07 88.4773L1463.05 88.6417C1463.84 83.9359 1465.33 79.8862 1467.52 76.4715L1466.68 75.9318L1465.84 75.3922C1463.48 79.0684 1461.9 83.3823 1461.08 88.3129L1462.07 88.4773ZM1466.68 75.9318L1467.52 76.474C1469.73 73.0479 1472.42 70.4296 1475.59 68.5923L1475.09 67.7273L1474.59 66.8622C1471.12 68.8735 1468.21 71.7248 1465.84 75.3896L1466.68 75.9318ZM1475.09 67.7273L1475.6 68.5906C1478.76 66.7419 1482.19 65.8182 1485.91 65.8182V64.8182V63.8182C1481.84 63.8182 1478.06 64.8338 1474.59 66.8639L1475.09 67.7273ZM1485.91 64.8182V65.8182C1488.29 65.8182 1490.39 66.1883 1492.23 66.9082L1492.59 65.9773L1492.96 65.0463C1490.85 64.2208 1488.5 63.8182 1485.91 63.8182V64.8182ZM1492.59 65.9773L1492.23 66.9106C1494.08 67.6212 1495.63 68.6222 1496.9 69.9078L1497.61 69.2045L1498.32 68.5013C1496.84 66.9991 1495.04 65.8484 1492.95 65.0439L1492.59 65.9773ZM1497.61 69.2045L1496.91 69.9155C1498.21 71.1979 1499.2 72.6895 1499.89 74.3981L1500.82 74.0227L1501.75 73.6474C1500.95 71.6893 1499.81 69.9688 1498.32 68.4936L1497.61 69.2045ZM1500.82 74.0227L1499.89 74.3981C1500.58 76.1068 1500.95 77.9755 1500.98 80.0141L1501.98 80L1502.98 79.9859C1502.95 77.7214 1502.54 75.6053 1501.75 73.6474L1500.82 74.0227ZM1511.87 110.409L1511.27 111.21L1511.27 111.213L1511.87 110.409ZM1507.44 103.932L1506.48 104.231L1507.44 103.932ZM1507.01 94.3864L1506.02 94.2247L1506.02 94.2287L1507.01 94.3864ZM1510.44 85.1136L1509.6 84.5722L1509.6 84.5734L1510.44 85.1136ZM1516.8 78.8636L1517.31 79.7248L1517.31 79.7225L1516.8 78.8636ZM1532.73 78.9545L1532.13 79.7538L1532.13 79.7559L1532.73 78.9545ZM1537.16 85.4318L1536.21 85.7307L1536.21 85.7355L1537.16 85.4318ZM1537.62 95L1538.61 95.1623L1538.61 95.157L1537.62 95ZM1534.16 104.25L1535 104.796L1535 104.794L1534.16 104.25ZM1527.8 110.477L1527.29 109.618L1527.29 109.62L1527.8 110.477ZM1526.28 107.045L1526.84 107.873L1526.84 107.872L1526.28 107.045ZM1531.12 101.727L1531.99 102.226L1531.99 102.223L1531.12 101.727ZM1533.69 94.3864L1534.67 94.5489L1534.67 94.545L1533.69 94.3864ZM1518.35 82.3182L1518.91 83.1443L1518.91 83.1413L1518.35 82.3182ZM1513.51 87.6818L1514.37 88.178L1514.38 88.1754L1513.51 87.6818ZM1510.96 95L1511.95 95.1635L1511.95 95.158L1510.96 95ZM1511.05 102.023L1510.08 102.246L1510.08 102.252L1511.05 102.023ZM1513.94 107.114L1513.27 107.859L1513.28 107.863L1513.94 107.114ZM1519.6 112.727V111.727C1516.71 111.727 1514.35 111.002 1512.46 109.605L1511.87 110.409L1511.27 111.213C1513.57 112.907 1516.36 113.727 1519.6 113.727V112.727ZM1511.87 110.409L1512.47 109.608C1510.56 108.186 1509.2 106.212 1508.39 103.633L1507.44 103.932L1506.48 104.231C1507.4 107.166 1508.99 109.511 1511.27 111.21L1511.87 110.409ZM1507.44 103.932L1508.39 103.633C1507.58 101.057 1507.44 98.0366 1507.99 94.544L1507.01 94.3864L1506.02 94.2287C1505.42 97.9483 1505.56 101.292 1506.48 104.231L1507.44 103.932ZM1507.01 94.3864L1507.99 94.548C1508.55 91.1509 1509.65 88.1922 1511.28 85.6539L1510.44 85.1136L1509.6 84.5734C1507.8 87.3684 1506.61 90.5915 1506.02 94.2247L1507.01 94.3864ZM1510.44 85.1136L1511.28 85.6551C1512.93 83.092 1514.94 81.1233 1517.31 79.7248L1516.8 78.8636L1516.29 78.0025C1513.63 79.5737 1511.4 81.7716 1509.6 84.5722L1510.44 85.1136ZM1516.8 78.8636L1517.31 79.7225C1519.67 78.3157 1522.23 77.6136 1525.01 77.6136V76.6136V75.6136C1521.87 75.6136 1518.96 76.4115 1516.29 78.0048L1516.8 78.8636ZM1525.01 76.6136V77.6136C1527.91 77.6136 1530.26 78.3463 1532.13 79.7538L1532.73 78.9545L1533.33 78.1552C1531.05 76.4416 1528.26 75.6136 1525.01 75.6136V76.6136ZM1532.73 78.9545L1532.13 79.7559C1534.04 81.1772 1535.4 83.1513 1536.21 85.7307L1537.16 85.4318L1538.12 85.1329C1537.2 82.1972 1535.61 79.8531 1533.33 78.1532L1532.73 78.9545ZM1537.16 85.4318L1536.21 85.7355C1537.03 88.31 1537.19 91.3359 1536.63 94.843L1537.62 95L1538.61 95.157C1539.2 91.4217 1539.05 88.0688 1538.12 85.1282L1537.16 85.4318ZM1537.62 95L1536.63 94.8377C1536.08 98.2176 1534.97 101.168 1533.33 103.706L1534.16 104.25L1535 104.794C1536.81 101.999 1538.01 98.7824 1538.61 95.1623L1537.62 95ZM1534.16 104.25L1533.33 103.704C1531.68 106.238 1529.66 108.203 1527.29 109.618L1527.8 110.477L1528.31 111.336C1530.97 109.752 1533.2 107.565 1535 104.796L1534.16 104.25ZM1527.8 110.477L1527.29 109.62C1524.95 111.025 1522.39 111.727 1519.6 111.727V112.727V113.727C1522.74 113.727 1525.66 112.93 1528.32 111.335L1527.8 110.477ZM1519.64 109.023V110.023C1522.31 110.023 1524.73 109.31 1526.84 107.873L1526.28 107.045L1525.72 106.218C1523.95 107.417 1521.94 108.023 1519.64 108.023V109.023ZM1526.28 107.045L1526.84 107.872C1528.93 106.447 1530.64 104.558 1531.99 102.226L1531.12 101.727L1530.25 101.229C1529.05 103.321 1527.54 104.977 1525.71 106.219L1526.28 107.045ZM1531.12 101.727L1531.99 102.223C1533.32 99.8874 1534.22 97.3266 1534.67 94.5489L1533.69 94.3864L1532.7 94.2238C1532.28 96.7795 1531.46 99.1126 1530.25 101.231L1531.12 101.727ZM1533.69 94.3864L1534.67 94.545C1535.1 91.8932 1535.06 89.419 1534.52 87.1357L1533.55 87.3636L1532.58 87.5915C1533.04 89.581 1533.09 91.7886 1532.7 94.2277L1533.69 94.3864ZM1533.55 87.3636L1534.52 87.1357C1533.99 84.8305 1532.93 82.9287 1531.34 81.4855L1530.66 82.2273L1529.99 82.969C1531.25 84.1016 1532.12 85.624 1532.58 87.5915L1533.55 87.3636ZM1530.66 82.2273L1531.34 81.4855C1529.69 79.9952 1527.53 79.2955 1524.98 79.2955V80.2955V81.2955C1527.16 81.2955 1528.79 81.8835 1529.99 82.969L1530.66 82.2273ZM1524.98 80.2955V79.2955C1522.32 79.2955 1519.91 80.0266 1517.78 81.4951L1518.35 82.3182L1518.91 83.1413C1520.7 81.9128 1522.71 81.2955 1524.98 81.2955V80.2955ZM1518.35 82.3182L1517.78 81.4921C1515.69 82.919 1513.98 84.8252 1512.64 87.1882L1513.51 87.6818L1514.38 88.1754C1515.58 86.0536 1517.09 84.3841 1518.91 83.1443L1518.35 82.3182ZM1513.51 87.6818L1512.64 87.1857C1511.3 89.5224 1510.42 92.0772 1509.97 94.842L1510.96 95L1511.95 95.158C1512.35 92.6198 1513.16 90.2958 1514.37 88.178L1513.51 87.6818ZM1510.96 95L1509.97 94.8365C1509.53 97.5012 1509.56 99.9756 1510.08 102.246L1511.05 102.023L1512.03 101.8C1511.58 99.8274 1511.54 97.62 1511.95 95.1635L1510.96 95ZM1511.05 102.023L1510.08 102.252C1510.62 104.544 1511.67 106.431 1513.27 107.859L1513.94 107.114L1514.6 106.368C1513.35 105.25 1512.48 103.744 1512.02 101.793L1511.05 102.023ZM1513.94 107.114L1513.28 107.863C1514.94 109.332 1517.09 110.023 1519.64 110.023V109.023V108.023C1517.46 108.023 1515.82 107.441 1514.6 106.364L1513.94 107.114ZM1543.68 112L1542.7 111.836L1542.5 113H1543.68V112ZM1549.5 77.0909V76.0909H1548.65L1548.51 76.9265L1549.5 77.0909ZM1553.43 77.0909L1554.42 77.258L1554.62 76.0909H1553.43V77.0909ZM1552.52 82.4545L1551.54 82.2874L1551.34 83.4545H1552.52V82.4545ZM1552.89 82.4545V83.4545H1553.47L1553.76 82.9452L1552.89 82.4545ZM1557.11 78.2045L1557.61 79.0728L1557.62 79.0696L1557.11 78.2045ZM1568.89 78.3409L1568.25 79.1091L1568.25 79.1133L1568.89 78.3409ZM1571.61 82.9773L1570.64 83.2021L1570.82 83.9773H1571.61V82.9773ZM1571.91 82.9773V83.9773H1572.49L1572.78 83.4675L1571.91 82.9773ZM1576.52 78.3636L1577.02 79.2315L1577.02 79.2286L1576.52 78.3636ZM1590.48 79.7045L1591.28 79.1017V79.1017L1590.48 79.7045ZM1591.82 88.6136L1590.83 88.4486L1590.83 88.4488L1591.82 88.6136ZM1587.91 112V113H1588.76L1588.9 112.165L1587.91 112ZM1583.86 112L1582.88 111.835L1582.68 113H1583.86V112ZM1587.77 88.6136L1588.76 88.7785L1588.76 88.771L1587.77 88.6136ZM1574.91 82.7955L1575.59 83.5246L1575.59 83.5244L1574.91 82.7955ZM1571.7 89.0227L1572.69 89.1876L1572.69 89.1823L1571.7 89.0227ZM1567.86 112V113H1568.71L1568.85 112.165L1567.86 112ZM1563.73 112L1562.74 111.835L1562.55 113H1563.73V112ZM1567.7 88.25L1568.69 88.4152L1568.69 88.4082L1567.7 88.25ZM1566.68 82.5227L1565.87 83.1064L1565.87 83.1119L1566.68 82.5227ZM1556.95 81.5455L1557.44 82.4183L1557.45 82.4165L1556.95 81.5455ZM1553.36 84.8409L1552.54 84.268L1552.54 84.2698L1553.36 84.8409ZM1551.45 89.6364L1550.47 89.4706L1550.47 89.472L1551.45 89.6364ZM1547.73 112V113H1548.57L1548.71 112.164L1547.73 112ZM1543.68 112L1544.67 112.164L1550.49 77.2553L1549.5 77.0909L1548.51 76.9265L1542.7 111.836L1543.68 112ZM1549.5 77.0909V78.0909H1553.43V77.0909V76.0909H1549.5V77.0909ZM1553.43 77.0909L1552.45 76.9238L1551.54 82.2874L1552.52 82.4545L1553.51 82.6217L1554.42 77.258L1553.43 77.0909ZM1552.52 82.4545V83.4545H1552.89V82.4545V81.4545H1552.52V82.4545ZM1552.89 82.4545L1553.76 82.9452C1554.68 81.3002 1555.96 80.0138 1557.61 79.0728L1557.11 78.2045L1556.62 77.3363C1554.66 78.4559 1553.12 80.0028 1552.01 81.9639L1552.89 82.4545ZM1557.11 78.2045L1557.62 79.0696C1559.25 78.121 1561.12 77.6364 1563.25 77.6364V76.6364V75.6364C1560.8 75.6364 1558.58 76.1972 1556.61 77.3395L1557.11 78.2045ZM1563.25 76.6364V77.6364C1565.49 77.6364 1567.12 78.1676 1568.25 79.1091L1568.89 78.3409L1569.53 77.5727C1567.93 76.2415 1565.8 75.6364 1563.25 75.6364V76.6364ZM1568.89 78.3409L1568.25 79.1133C1569.42 80.0746 1570.23 81.4148 1570.64 83.2021L1571.61 82.9773L1572.59 82.7524C1572.09 80.6004 1571.08 78.8497 1569.52 77.5685L1568.89 78.3409ZM1571.61 82.9773V83.9773H1571.91V82.9773V81.9773H1571.61V82.9773ZM1571.91 82.9773L1572.78 83.4675C1573.78 81.6901 1575.19 80.2807 1577.02 79.2315L1576.52 78.3636L1576.03 77.4958C1573.89 78.7193 1572.22 80.3857 1571.04 82.487L1571.91 82.9773ZM1576.52 78.3636L1577.02 79.2286C1578.84 78.1749 1580.93 77.6364 1583.32 77.6364V76.6364V75.6364C1580.62 75.6364 1578.17 76.2493 1576.02 77.4987L1576.52 78.3636ZM1583.32 76.6364V77.6364C1586.32 77.6364 1588.37 78.5759 1589.68 80.3074L1590.48 79.7045L1591.28 79.1017C1589.49 76.7423 1586.77 75.6364 1583.32 75.6364V76.6364ZM1590.48 79.7045L1589.68 80.3074C1590.99 82.0393 1591.46 84.6814 1590.83 88.4486L1591.82 88.6136L1592.8 88.7787C1593.48 84.758 1593.06 81.4607 1591.28 79.1017L1590.48 79.7045ZM1591.82 88.6136L1590.83 88.4488L1586.92 111.835L1587.91 112L1588.9 112.165L1592.8 88.7785L1591.82 88.6136ZM1587.91 112V111H1583.86V112V113H1587.91V112ZM1583.86 112L1584.85 112.165L1588.76 88.7785L1587.77 88.6136L1586.79 88.4488L1582.88 111.835L1583.86 112ZM1587.77 88.6136L1588.76 88.771C1589.22 85.8855 1588.89 83.4672 1587.47 81.7681L1586.7 82.4091L1585.94 83.0501C1586.82 84.1086 1587.2 85.8266 1586.79 88.4563L1587.77 88.6136ZM1586.7 82.4091L1587.47 81.7681C1586.08 80.1006 1584.03 79.3409 1581.52 79.3409V80.3409V81.3409C1583.62 81.3409 1585.03 81.96 1585.94 83.0501L1586.7 82.4091ZM1581.52 80.3409V79.3409C1578.63 79.3409 1576.17 80.2354 1574.22 82.0665L1574.91 82.7955L1575.59 83.5244C1577.13 82.0828 1579.08 81.3409 1581.52 81.3409V80.3409ZM1574.91 82.7955L1574.22 82.0663C1572.32 83.8514 1571.16 86.1338 1570.72 88.8631L1571.7 89.0227L1572.69 89.1823C1573.07 86.8511 1574.04 84.9819 1575.59 83.5246L1574.91 82.7955ZM1571.7 89.0227L1570.72 88.8579L1566.88 111.835L1567.86 112L1568.85 112.165L1572.69 89.1876L1571.7 89.0227ZM1567.86 112V111H1563.73V112V113H1567.86V112ZM1563.73 112L1564.71 112.165L1568.69 88.4152L1567.7 88.25L1566.72 88.0848L1562.74 111.835L1563.73 112ZM1567.7 88.25L1568.69 88.4082C1569.1 85.8713 1568.75 83.6672 1567.49 81.9336L1566.68 82.5227L1565.87 83.1119C1566.73 84.2874 1567.07 85.9014 1566.72 88.0918L1567.7 88.25ZM1566.68 82.5227L1567.49 81.9391C1566.2 80.14 1564.12 79.3409 1561.52 79.3409V80.3409V81.3409C1563.71 81.3409 1565.07 81.9964 1565.87 83.1064L1566.68 82.5227ZM1561.52 80.3409V79.3409C1559.73 79.3409 1558.04 79.7876 1556.46 80.6744L1556.95 81.5455L1557.45 82.4165C1558.72 81.6973 1560.08 81.3409 1561.52 81.3409V80.3409ZM1556.95 81.5455L1556.47 80.6726C1554.92 81.5389 1553.61 82.7434 1552.54 84.268L1553.36 84.8409L1554.18 85.4138C1555.09 84.1202 1556.17 83.1277 1557.44 82.4183L1556.95 81.5455ZM1553.36 84.8409L1552.54 84.2698C1551.48 85.7942 1550.79 87.5333 1550.47 89.4706L1551.45 89.6364L1552.44 89.8021C1552.72 88.1334 1553.31 86.6755 1554.18 85.412L1553.36 84.8409ZM1551.45 89.6364L1550.47 89.472L1546.74 111.836L1547.73 112L1548.71 112.164L1552.44 89.8008L1551.45 89.6364ZM1547.73 112V111H1543.68V112V113H1547.73V112ZM1596.44 125.091L1595.45 124.926L1595.26 126.091H1596.44V125.091ZM1604.48 77.0909V76.0909H1603.64L1603.5 76.9256L1604.48 77.0909ZM1608.41 77.0909L1609.4 77.2526L1609.59 76.0909H1608.41V77.0909ZM1607.32 83.75L1606.34 83.5883L1606.15 84.75H1607.32V83.75ZM1607.8 83.75V84.75H1608.36L1608.66 84.2699L1607.8 83.75ZM1610.28 80.5227L1609.55 79.8411L1609.54 79.8465L1610.28 80.5227ZM1614.12 77.75L1614.56 78.6497L1614.56 78.6479L1614.12 77.75ZM1626.82 78.8636L1626.2 79.6476L1626.21 79.65L1626.82 78.8636ZM1630.82 85.1818L1629.86 85.4509L1629.86 85.4558L1630.82 85.1818ZM1631.07 94.6364L1630.09 94.4699L1630.09 94.4747L1631.07 94.6364ZM1627.69 104.114L1628.54 104.637L1627.69 104.114ZM1621.57 110.455L1621.04 109.608L1621.04 109.61L1621.57 110.455ZM1608.6 111.591L1608.09 112.453L1608.09 112.455L1608.6 111.591ZM1605.64 108.795L1604.79 109.315L1604.79 109.32L1605.64 108.795ZM1604.16 105.523L1605.13 105.248L1604.92 104.523H1604.16V105.523ZM1603.8 105.523V104.523H1602.95L1602.81 105.358L1603.8 105.523ZM1600.53 125.091V126.091H1601.38L1601.51 125.256L1600.53 125.091ZM1605.57 94.5682L1604.59 94.4073L1604.59 94.409L1605.57 94.5682ZM1605.57 102.068L1604.59 102.272L1604.6 102.274L1605.57 102.068ZM1608.32 107.182L1607.65 107.925L1607.66 107.929L1608.32 107.182ZM1619.98 107.114L1620.56 107.933L1620.56 107.93L1619.98 107.114ZM1624.53 101.909L1625.4 102.395V102.395L1624.53 101.909ZM1627.03 94.5682L1628.01 94.7335L1628.02 94.7244L1627.03 94.5682ZM1626.98 87.3182L1626 87.5249V87.5249L1626.98 87.3182ZM1624.26 82.2045L1623.57 82.9356L1623.58 82.9397L1624.26 82.2045ZM1612.55 82.1364L1613.11 82.9663L1613.11 82.9652L1612.55 82.1364ZM1608.05 87.1818L1608.92 87.6706L1608.93 87.668L1608.05 87.1818ZM1596.44 125.091L1597.42 125.256L1605.47 77.2562L1604.48 77.0909L1603.5 76.9256L1595.45 124.926L1596.44 125.091ZM1604.48 77.0909V78.0909H1608.41V77.0909V76.0909H1604.48V77.0909ZM1608.41 77.0909L1607.43 76.9292L1606.34 83.5883L1607.32 83.75L1608.31 83.9117L1609.4 77.2526L1608.41 77.0909ZM1607.32 83.75V84.75H1607.8V83.75V82.75H1607.32V83.75ZM1607.8 83.75L1608.66 84.2699C1609.25 83.2911 1610.03 82.2672 1611.02 81.1989L1610.28 80.5227L1609.54 79.8465C1608.49 80.9904 1607.62 82.118 1606.95 83.2301L1607.8 83.75ZM1610.28 80.5227L1611.01 81.2043C1611.95 80.1992 1613.12 79.345 1614.56 78.6497L1614.12 77.75L1613.68 76.8503C1612.06 77.6399 1610.67 78.6342 1609.55 79.8411L1610.28 80.5227ZM1614.12 77.75L1614.56 78.6479C1615.94 77.9722 1617.63 77.6136 1619.66 77.6136V76.6136V75.6136C1617.4 75.6136 1615.39 76.0127 1613.68 76.8521L1614.12 77.75ZM1619.66 76.6136V77.6136C1622.36 77.6136 1624.52 78.313 1626.2 79.6476L1626.82 78.8636L1627.44 78.0797C1625.34 76.4143 1622.72 75.6136 1619.66 75.6136V76.6136ZM1626.82 78.8636L1626.21 79.65C1627.92 80.9984 1629.15 82.9096 1629.86 85.4509L1630.82 85.1818L1631.79 84.9128C1630.98 82.0298 1629.54 79.7289 1627.44 78.0773L1626.82 78.8636ZM1630.82 85.1818L1629.86 85.4558C1630.58 87.9894 1630.68 90.9846 1630.09 94.4699L1631.07 94.6364L1632.06 94.8028C1632.68 91.1063 1632.61 87.7985 1631.79 84.9078L1630.82 85.1818ZM1631.07 94.6364L1630.09 94.4747C1629.51 97.9713 1628.42 101.004 1626.84 103.59L1627.69 104.114L1628.54 104.637C1630.28 101.799 1631.45 98.5136 1632.06 94.7981L1631.07 94.6364ZM1627.69 104.114L1626.84 103.59C1625.24 106.187 1623.31 108.184 1621.04 109.608L1621.57 110.455L1622.11 111.301C1624.66 109.695 1626.8 107.464 1628.54 104.637L1627.69 104.114ZM1621.57 110.455L1621.04 109.61C1618.81 111.023 1616.37 111.727 1613.71 111.727V112.727V113.727C1616.75 113.727 1619.55 112.917 1622.11 111.3L1621.57 110.455ZM1613.71 112.727V111.727C1611.71 111.727 1610.2 111.367 1609.1 110.726L1608.6 111.591L1608.09 112.455C1609.6 113.33 1611.49 113.727 1613.71 113.727V112.727ZM1608.6 111.591L1609.1 110.729C1607.94 110.042 1607.08 109.218 1606.49 108.271L1605.64 108.795L1604.79 109.32C1605.57 110.585 1606.68 111.625 1608.09 112.453L1608.6 111.591ZM1605.64 108.795L1606.5 108.276C1605.85 107.217 1605.4 106.208 1605.13 105.248L1604.16 105.523L1603.2 105.797C1603.53 106.959 1604.07 108.131 1604.79 109.315L1605.64 108.795ZM1604.16 105.523V104.523H1603.8V105.523V106.523H1604.16V105.523ZM1603.8 105.523L1602.81 105.358L1599.54 124.926L1600.53 125.091L1601.51 125.256L1604.79 105.688L1603.8 105.523ZM1600.53 125.091V124.091H1596.44V125.091V126.091H1600.53V125.091ZM1605.57 94.5682L1604.59 94.409C1604.12 97.3154 1604.11 99.9425 1604.59 102.272L1605.57 102.068L1606.55 101.864C1606.13 99.8303 1606.12 97.4574 1606.56 94.7274L1605.57 94.5682ZM1605.57 102.068L1604.6 102.274C1605.08 104.607 1606.09 106.515 1607.65 107.925L1608.32 107.182L1608.99 106.439C1607.8 105.364 1606.97 103.863 1606.55 101.863L1605.57 102.068ZM1608.32 107.182L1607.66 107.929C1609.26 109.353 1611.33 110.023 1613.78 110.023V109.023V108.023C1611.71 108.023 1610.15 107.465 1608.99 106.435L1608.32 107.182ZM1613.78 109.023V110.023C1616.29 110.023 1618.56 109.329 1620.56 107.933L1619.98 107.114L1619.41 106.294C1617.77 107.444 1615.9 108.023 1613.78 108.023V109.023ZM1619.98 107.114L1620.56 107.93C1622.52 106.545 1624.13 104.692 1625.4 102.395L1624.53 101.909L1623.65 101.423C1622.51 103.49 1621.09 105.106 1619.4 106.298L1619.98 107.114ZM1624.53 101.909L1625.4 102.395C1626.68 100.104 1627.54 97.5466 1628.01 94.7335L1627.03 94.5682L1626.04 94.4029C1625.6 97.014 1624.81 99.3509 1623.65 101.423L1624.53 101.909ZM1627.03 94.5682L1628.02 94.7244C1628.46 91.9494 1628.45 89.4068 1627.96 87.1115L1626.98 87.3182L1626 87.5249C1626.43 89.5326 1626.45 91.8233 1626.04 94.4119L1627.03 94.5682ZM1626.98 87.3182L1627.96 87.1115C1627.47 84.7955 1626.48 82.8923 1624.93 81.4694L1624.26 82.2045L1623.58 82.9397C1624.76 84.032 1625.58 85.5378 1626 87.5249L1626.98 87.3182ZM1624.26 82.2045L1624.94 81.4735C1623.34 79.9863 1621.22 79.2955 1618.69 79.2955V80.2955V81.2955C1620.85 81.2955 1622.44 81.8773 1623.57 82.9356L1624.26 82.2045ZM1618.69 80.2955V79.2955C1616.22 79.2955 1613.98 79.9645 1611.99 81.3075L1612.55 82.1364L1613.11 82.9652C1614.76 81.8537 1616.61 81.2955 1618.69 81.2955V80.2955ZM1612.55 82.1364L1611.99 81.3065C1610.04 82.6177 1608.44 84.4248 1607.18 86.6957L1608.05 87.1818L1608.93 87.668C1610.06 85.6358 1611.45 84.0792 1613.11 82.9663L1612.55 82.1364ZM1608.05 87.1818L1607.18 86.693C1605.92 88.9455 1605.06 91.5216 1604.59 94.4073L1605.57 94.5682L1606.56 94.7291C1607 92.039 1607.79 89.6909 1608.92 87.6706L1608.05 87.1818ZM1641.15 111.568L1640.69 112.456L1640.69 112.459L1641.15 111.568ZM1637.56 107.977L1636.66 108.418L1636.66 108.428L1637.56 107.977ZM1636.92 102.25L1635.94 102.077L1635.93 102.087L1635.93 102.096L1636.92 102.25ZM1638.65 97.8864L1637.84 97.2963L1637.84 97.3032L1638.65 97.8864ZM1641.92 94.9773L1642.42 95.8443L1642.43 95.84L1641.92 94.9773ZM1646.47 93.1591L1646.22 92.1905V92.1905L1646.47 93.1591ZM1652.06 92.1591L1652.17 93.1528L1652.18 93.1516L1652.06 92.1591ZM1657.1 91.5227L1656.97 90.5311V90.5311L1657.1 91.5227ZM1660.35 90.6591L1659.9 89.7682V89.7682L1660.35 90.6591ZM1661.74 88.75L1662.72 88.9199L1662.73 88.9144L1661.74 88.75ZM1661.88 87.9318L1662.86 88.0962L1662.86 88.0952L1661.88 87.9318ZM1660.78 82.3182L1660.01 82.9491L1660.01 82.9533L1660.78 82.3182ZM1648.6 81.9318L1649.12 82.7881L1649.12 82.7868L1648.6 81.9318ZM1644.51 85.8182L1644.15 86.7511L1644.93 87.0536L1645.37 86.334L1644.51 85.8182ZM1640.92 84.4318L1640.05 83.9357L1639.48 84.9457L1640.56 85.3647L1640.92 84.4318ZM1644.94 79.8636L1645.52 80.6774L1645.53 80.6737L1644.94 79.8636ZM1650.06 77.3864L1650.32 78.3506L1650.33 78.3485L1650.06 77.3864ZM1659.51 77.1364L1659.27 78.1059V78.1059L1659.51 77.1364ZM1663.22 78.9545L1662.6 79.7386L1662.6 79.7433L1662.61 79.748L1663.22 78.9545ZM1665.65 82.5227L1664.7 82.8418L1664.7 82.8531L1665.65 82.5227ZM1665.88 88.2955L1666.86 88.46L1666.86 88.4557L1665.88 88.2955ZM1661.92 112V113H1662.77L1662.91 112.165L1661.92 112ZM1657.88 112L1656.89 111.834L1656.69 113H1657.88V112ZM1658.81 106.477L1659.79 106.644L1659.99 105.477H1658.81V106.477ZM1658.56 106.477V105.477H1658L1657.71 105.952L1658.56 106.477ZM1655.92 109.477L1655.27 108.721L1655.26 108.725L1655.92 109.477ZM1651.94 111.864L1652.32 112.791L1651.94 111.864ZM1653.58 107.659L1653.1 106.78L1653.1 106.782L1653.58 107.659ZM1657.9 103.864L1657.08 103.282L1657.08 103.284L1657.9 103.864ZM1660.08 98.6136L1659.09 98.4492V98.4492L1660.08 98.6136ZM1660.92 93.5682L1661.91 93.7326L1662.36 91.0019L1660.27 92.8114L1660.92 93.5682ZM1659.28 94.3409L1659 93.3831L1658.99 93.3847L1659.28 94.3409ZM1656.76 94.9545L1656.94 95.9388L1656.95 95.9363L1656.76 94.9545ZM1653.97 95.3864L1653.84 94.3946L1653.84 94.3949L1653.97 95.3864ZM1651.51 95.7045L1651.63 96.6974L1651.64 96.6965L1651.51 95.7045ZM1646.24 96.8409L1645.91 95.8951L1645.91 95.8962L1646.24 96.8409ZM1642.67 98.9773L1643.38 99.6844L1643.38 99.6784L1642.67 98.9773ZM1640.99 102.432L1641.98 102.594L1641.98 102.591L1640.99 102.432ZM1642.38 107.364L1641.7 108.101L1641.71 108.109L1642.38 107.364ZM1646.72 112.795V111.795C1644.74 111.795 1643.05 111.413 1641.6 110.677L1641.15 111.568L1640.69 112.459C1642.46 113.36 1644.48 113.795 1646.72 113.795V112.795ZM1641.15 111.568L1641.61 110.681C1640.18 109.94 1639.14 108.893 1638.45 107.527L1637.56 107.977L1636.66 108.428C1637.55 110.183 1638.9 111.529 1640.69 112.456L1641.15 111.568ZM1637.56 107.977L1638.45 107.537C1637.8 106.192 1637.58 104.503 1637.91 102.404L1636.92 102.25L1635.93 102.096C1635.56 104.482 1635.77 106.611 1636.66 108.418L1637.56 107.977ZM1636.92 102.25L1637.91 102.423C1638.19 100.814 1638.72 99.5068 1639.46 98.4696L1638.65 97.8864L1637.84 97.3032C1636.88 98.6296 1636.26 100.232 1635.94 102.077L1636.92 102.25ZM1638.65 97.8864L1639.46 98.4764C1640.23 97.4119 1641.22 96.5349 1642.42 95.8443L1641.92 94.9773L1641.42 94.1103C1639.99 94.9348 1638.79 95.9972 1637.84 97.2963L1638.65 97.8864ZM1641.92 94.9773L1642.43 95.84C1643.65 95.121 1645.08 94.5475 1646.71 94.1277L1646.47 93.1591L1646.22 92.1905C1644.43 92.6495 1642.82 93.288 1641.41 94.1146L1641.92 94.9773ZM1646.47 93.1591L1646.71 94.1277C1648.38 93.7014 1650.19 93.3756 1652.17 93.1528L1652.06 92.1591L1651.94 91.1654C1649.89 91.3971 1647.98 91.738 1646.22 92.1905L1646.47 93.1591ZM1652.06 92.1591L1652.18 93.1516C1654.15 92.909 1655.83 92.6966 1657.23 92.5143L1657.1 91.5227L1656.97 90.5311C1655.58 90.7125 1653.9 90.9243 1651.93 91.1666L1652.06 92.1591ZM1657.1 91.5227L1657.23 92.5143C1658.68 92.3257 1659.89 92.0179 1660.81 91.55L1660.35 90.6591L1659.9 89.7682C1659.27 90.0881 1658.31 90.3561 1656.97 90.5311L1657.1 91.5227ZM1660.35 90.6591L1660.81 91.55C1661.87 91.0082 1662.52 90.099 1662.72 88.9199L1661.74 88.75L1660.75 88.5801C1660.65 89.1585 1660.38 89.5221 1659.9 89.7682L1660.35 90.6591ZM1661.74 88.75L1662.73 88.9144L1662.86 88.0962L1661.88 87.9318L1660.89 87.7674L1660.75 88.5856L1661.74 88.75ZM1661.88 87.9318L1662.86 88.0952C1663.28 85.5408 1662.92 83.3426 1661.56 81.6831L1660.78 82.3182L1660.01 82.9533C1660.89 84.021 1661.25 85.5653 1660.89 87.7684L1661.88 87.9318ZM1660.78 82.3182L1661.56 81.6873C1660.17 79.9796 1657.94 79.25 1655.15 79.25V80.25V81.25C1657.63 81.25 1659.15 81.8992 1660.01 82.9491L1660.78 82.3182ZM1655.15 80.25V79.25C1652.48 79.25 1650.11 79.8462 1648.08 81.0768L1648.6 81.9318L1649.12 82.7868C1650.79 81.775 1652.79 81.25 1655.15 81.25V80.25ZM1648.6 81.9318L1648.09 81.0756C1646.15 82.2462 1644.65 83.649 1643.65 85.3024L1644.51 85.8182L1645.37 86.334C1646.16 85.0177 1647.39 83.8295 1649.12 82.7881L1648.6 81.9318ZM1644.51 85.8182L1644.87 84.8853L1641.28 83.4989L1640.92 84.4318L1640.56 85.3647L1644.15 86.7511L1644.51 85.8182ZM1640.92 84.4318L1641.79 84.928C1642.82 83.1285 1644.06 81.7199 1645.52 80.6774L1644.94 79.8636L1644.36 79.0499C1642.64 80.2801 1641.21 81.9169 1640.05 83.9357L1640.92 84.4318ZM1644.94 79.8636L1645.53 80.6737C1647.03 79.5894 1648.62 78.8175 1650.32 78.3506L1650.06 77.3864L1649.79 76.4222C1647.85 76.9552 1646.04 77.8348 1644.36 79.0536L1644.94 79.8636ZM1650.06 77.3864L1650.33 78.3485C1652.06 77.8568 1653.77 77.6136 1655.44 77.6136V76.6136V75.6136C1653.57 75.6136 1651.69 75.8856 1649.78 76.4242L1650.06 77.3864ZM1655.44 76.6136V77.6136C1656.69 77.6136 1657.96 77.7763 1659.27 78.1059L1659.51 77.1364L1659.76 76.1669C1658.3 75.7995 1656.86 75.6136 1655.44 75.6136V76.6136ZM1659.51 77.1364L1659.27 78.1059C1660.51 78.4205 1661.62 78.9646 1662.6 79.7386L1663.22 78.9545L1663.84 78.1705C1662.63 77.2172 1661.27 76.5492 1659.76 76.1669L1659.51 77.1364ZM1663.22 78.9545L1662.61 79.748C1663.53 80.4573 1664.24 81.4692 1664.7 82.8418L1665.65 82.5227L1666.6 82.2037C1666.03 80.5157 1665.11 79.1488 1663.82 78.1611L1663.22 78.9545ZM1665.65 82.5227L1664.7 82.8531C1665.16 84.1539 1665.25 85.8943 1664.89 88.1352L1665.88 88.2955L1666.86 88.4557C1667.26 86.0299 1667.2 83.9219 1666.59 82.1924L1665.65 82.5227ZM1665.88 88.2955L1664.89 88.1309L1660.93 111.835L1661.92 112L1662.91 112.165L1666.86 88.46L1665.88 88.2955ZM1661.92 112V111H1657.88V112V113H1661.92V112ZM1657.88 112L1658.86 112.166L1659.79 106.644L1658.81 106.477L1657.82 106.311L1656.89 111.834L1657.88 112ZM1658.81 106.477V105.477H1658.56V106.477V107.477H1658.81V106.477ZM1658.56 106.477L1657.71 105.952C1657.13 106.879 1656.33 107.803 1655.27 108.721L1655.92 109.477L1656.57 110.234C1657.76 109.212 1658.71 108.136 1659.41 107.003L1658.56 106.477ZM1655.92 109.477L1655.26 108.725C1654.25 109.612 1653.02 110.351 1651.57 110.936L1651.94 111.864L1652.32 112.791C1653.95 112.134 1655.38 111.282 1656.58 110.229L1655.92 109.477ZM1651.94 111.864L1651.57 110.936C1650.16 111.502 1648.55 111.795 1646.72 111.795V112.795V113.795C1648.76 113.795 1650.63 113.468 1652.32 112.791L1651.94 111.864ZM1647.74 109.091V110.091C1650.04 110.091 1652.16 109.578 1654.06 108.536L1653.58 107.659L1653.1 106.782C1651.52 107.649 1649.74 108.091 1647.74 108.091V109.091ZM1653.58 107.659L1654.06 108.538C1655.94 107.513 1657.5 106.148 1658.71 104.443L1657.9 103.864L1657.08 103.284C1656.05 104.731 1654.73 105.896 1653.1 106.78L1653.58 107.659ZM1657.9 103.864L1658.71 104.445C1659.94 102.731 1660.72 100.839 1661.07 98.778L1660.08 98.6136L1659.09 98.4492C1658.8 100.206 1658.13 101.814 1657.08 103.282L1657.9 103.864ZM1660.08 98.6136L1661.07 98.778L1661.91 93.7326L1660.92 93.5682L1659.93 93.4038L1659.09 98.4492L1660.08 98.6136ZM1660.92 93.5682L1660.27 92.8114C1660.09 92.9608 1659.71 93.1691 1659 93.3831L1659.28 94.3409L1659.57 95.2987C1660.37 95.0582 1661.08 94.7513 1661.57 94.325L1660.92 93.5682ZM1659.28 94.3409L1658.99 93.3847C1658.29 93.5996 1657.48 93.7962 1656.57 93.9728L1656.76 94.9545L1656.95 95.9363C1657.92 95.7493 1658.79 95.5368 1659.58 95.2971L1659.28 94.3409ZM1656.76 94.9545L1656.58 93.9704C1655.68 94.1341 1654.76 94.2755 1653.84 94.3946L1653.97 95.3864L1654.09 96.3781C1655.05 96.2548 1656 96.1083 1656.94 95.9387L1656.76 94.9545ZM1653.97 95.3864L1653.84 94.3949C1652.91 94.516 1652.1 94.6219 1651.38 94.7126L1651.51 95.7045L1651.64 96.6965C1652.35 96.6054 1653.17 96.4992 1654.1 96.3779L1653.97 95.3864ZM1651.51 95.7045L1651.39 94.7117C1649.33 94.9603 1647.5 95.3518 1645.91 95.8951L1646.24 96.8409L1646.56 97.7867C1647.98 97.2997 1649.67 96.9336 1651.63 96.6974L1651.51 95.7045ZM1646.24 96.8409L1645.91 95.8962C1644.31 96.4503 1642.98 97.2347 1641.96 98.2761L1642.67 98.9773L1643.38 99.6784C1644.15 98.9017 1645.19 98.2619 1646.57 97.7857L1646.24 96.8409ZM1642.67 98.9773L1641.96 98.2702C1640.9 99.3316 1640.26 100.684 1640 102.273L1640.99 102.432L1641.98 102.591C1642.17 101.362 1642.65 100.411 1643.38 99.6844L1642.67 98.9773ZM1640.99 102.432L1640 102.27C1639.61 104.631 1640.12 106.649 1641.7 108.101L1642.38 107.364L1643.05 106.626C1642.09 105.745 1641.67 104.475 1641.98 102.594L1640.99 102.432ZM1642.38 107.364L1641.71 108.109C1643.23 109.472 1645.29 110.091 1647.74 110.091V109.091V108.091C1645.62 108.091 1644.09 107.559 1643.04 106.618L1642.38 107.364ZM1680.34 90.1818L1679.36 90.0126L1679.35 90.0184L1680.34 90.1818ZM1676.73 112V113H1677.58L1677.71 112.163L1676.73 112ZM1672.68 112L1671.7 111.836L1671.5 113H1672.68V112ZM1678.5 77.0909V76.0909H1677.65L1677.51 76.9265L1678.5 77.0909ZM1682.43 77.0909L1683.42 77.2546L1683.61 76.0909H1682.43V77.0909ZM1681.52 82.5682L1680.54 82.4044L1680.34 83.5682H1681.52V82.5682ZM1681.89 82.5682V83.5682H1682.45L1682.74 83.089L1681.89 82.5682ZM1686.41 78.2727L1686.9 79.1456L1686.9 79.1443L1686.41 78.2727ZM1699.07 78.1136L1698.55 78.9662L1698.55 78.9718L1699.07 78.1136ZM1702.52 82.4091L1701.58 82.7478L1701.58 82.7544L1702.52 82.4091ZM1702.89 89.3864L1703.87 89.5519L1703.87 89.549L1702.89 89.3864ZM1699.09 112V113H1699.94L1700.08 112.166L1699.09 112ZM1695.05 112L1694.06 111.836L1693.86 113H1695.05V112ZM1698.77 89.6364L1699.76 89.8008L1699.76 89.7991L1698.77 89.6364ZM1697.52 82.8636L1696.73 83.4716L1696.73 83.4796L1697.52 82.8636ZM1686.43 81.5227L1685.98 80.6283L1685.98 80.63L1686.43 81.5227ZM1682.48 84.9318L1683.28 85.5225L1683.29 85.5185L1682.48 84.9318ZM1680.34 90.1818L1679.35 90.0184L1675.74 111.837L1676.73 112L1677.71 112.163L1681.33 90.3452L1680.34 90.1818ZM1676.73 112V111H1672.68V112V113H1676.73V112ZM1672.68 112L1673.67 112.164L1679.49 77.2553L1678.5 77.0909L1677.51 76.9265L1671.7 111.836L1672.68 112ZM1678.5 77.0909V78.0909H1682.43V77.0909V76.0909H1678.5V77.0909ZM1682.43 77.0909L1681.45 76.9272L1680.54 82.4044L1681.52 82.5682L1682.51 82.7319L1683.42 77.2546L1682.43 77.0909ZM1681.52 82.5682V83.5682H1681.89V82.5682V81.5682H1681.52V82.5682ZM1681.89 82.5682L1682.74 83.089C1683.74 81.4558 1685.11 80.142 1686.9 79.1456L1686.41 78.2727L1685.92 77.3999C1683.85 78.555 1682.22 80.1048 1681.03 82.0473L1681.89 82.5682ZM1686.41 78.2727L1686.9 79.1443C1688.67 78.1496 1690.74 77.6364 1693.16 77.6364V76.6364V75.6364C1690.45 75.6364 1688.03 76.2141 1685.92 77.4012L1686.41 78.2727ZM1693.16 76.6364V77.6364C1695.35 77.6364 1697.13 78.0983 1698.55 78.9661L1699.07 78.1136L1699.59 77.2612C1697.79 76.1592 1695.63 75.6364 1693.16 75.6364V76.6364ZM1699.07 78.1136L1698.55 78.9718C1699.96 79.8148 1700.97 81.0559 1701.58 82.7478L1702.52 82.4091L1703.46 82.0704C1702.71 79.9744 1701.41 78.3518 1699.58 77.2554L1699.07 78.1136ZM1702.52 82.4091L1701.58 82.7544C1702.2 84.4355 1702.34 86.5742 1701.9 89.2237L1702.89 89.3864L1703.87 89.549C1704.35 86.6833 1704.24 84.1706 1703.46 82.0637L1702.52 82.4091ZM1702.89 89.3864L1701.9 89.2208L1698.1 111.834L1699.09 112L1700.08 112.166L1703.87 89.5519L1702.89 89.3864ZM1699.09 112V111H1695.05V112V113H1699.09V112ZM1695.05 112L1696.03 112.164L1699.76 89.8008L1698.77 89.6364L1697.79 89.472L1694.06 111.836L1695.05 112ZM1698.77 89.6364L1699.76 89.7991C1700.26 86.7791 1699.84 84.2062 1698.31 82.2477L1697.52 82.8636L1696.73 83.4796C1697.81 84.8544 1698.23 86.7967 1697.79 89.4737L1698.77 89.6364ZM1697.52 82.8636L1698.32 82.2557C1696.79 80.261 1694.46 79.3409 1691.55 79.3409V80.3409V81.3409C1694.02 81.3409 1695.68 82.1026 1696.73 83.4716L1697.52 82.8636ZM1691.55 80.3409V79.3409C1689.56 79.3409 1687.7 79.7681 1685.98 80.6283L1686.43 81.5227L1686.88 82.4172C1688.31 81.7016 1689.86 81.3409 1691.55 81.3409V80.3409ZM1686.43 81.5227L1685.98 80.63C1684.27 81.4933 1682.83 82.7376 1681.67 84.3451L1682.48 84.9318L1683.29 85.5185C1684.27 84.1563 1685.47 83.1279 1686.88 82.4154L1686.43 81.5227ZM1682.48 84.9318L1681.67 84.3412C1680.49 85.9511 1679.73 87.85 1679.36 90.0126L1680.34 90.1818L1681.33 90.351C1681.65 88.453 1682.31 86.8519 1683.28 85.5225L1682.48 84.9318ZM1706.95 124.864L1706.73 125.839L1706.73 125.84L1706.95 124.864ZM1705.38 124.364L1704.48 123.933L1704.05 124.833L1704.95 125.265L1705.38 124.364ZM1707.09 120.795L1707.41 119.85L1706.57 119.559L1706.18 120.364L1707.09 120.795ZM1710.59 121.205L1710.45 120.214L1710.44 120.215L1710.43 120.217L1710.59 121.205ZM1713.65 119.659L1712.98 118.918V118.918L1713.65 119.659ZM1716.52 115.727L1717.4 116.202L1717.4 116.201L1716.52 115.727ZM1718.43 112.182L1719.31 112.656L1719.48 112.34L1719.41 111.989L1718.43 112.182ZM1711.52 77.0909V76.0909H1710.3L1710.54 77.2841L1711.52 77.0909ZM1715.72 77.0909L1716.71 76.9099L1716.55 76.0909H1715.72V77.0909ZM1721.18 106.727L1720.19 106.908L1720.34 107.727H1721.18V106.727ZM1721.47 106.727V107.727H1722.08L1722.36 107.186L1721.47 106.727ZM1736.77 77.0909V76.0909H1736.16L1735.88 76.6323L1736.77 77.0909ZM1741.34 77.0909L1742.22 77.5604L1743 76.0909H1741.34V77.0909ZM1719.86 117.477L1718.98 117.008L1718.97 117.009L1719.86 117.477ZM1716.79 121.773L1716.08 121.066L1716.08 121.07L1716.79 121.773ZM1713.2 124.273L1712.81 123.352L1712.8 123.354L1713.2 124.273ZM1709.18 125.091V124.091C1708.44 124.091 1707.77 124.021 1707.17 123.887L1706.95 124.864L1706.73 125.84C1707.49 126.009 1708.31 126.091 1709.18 126.091V125.091ZM1706.95 124.864L1707.17 123.889C1706.54 123.745 1706.1 123.598 1705.81 123.462L1705.38 124.364L1704.95 125.265C1705.42 125.493 1706.03 125.68 1706.73 125.839L1706.95 124.864ZM1705.38 124.364L1706.28 124.795L1707.99 121.227L1707.09 120.795L1706.18 120.364L1704.48 123.933L1705.38 124.364ZM1707.09 120.795L1706.76 121.741C1708.15 122.22 1709.48 122.39 1710.74 122.192L1710.59 121.205L1710.43 120.217C1709.57 120.352 1708.57 120.25 1707.41 119.85L1707.09 120.795ZM1710.59 121.205L1710.72 122.195C1712.04 122.01 1713.24 121.385 1714.32 120.4L1713.65 119.659L1712.98 118.918C1712.13 119.69 1711.29 120.096 1710.45 120.214L1710.59 121.205ZM1713.65 119.659L1714.32 120.4C1715.41 119.416 1716.43 117.998 1717.4 116.202L1716.52 115.727L1715.64 115.253C1714.73 116.941 1713.84 118.144 1712.98 118.918L1713.65 119.659ZM1716.52 115.727L1717.4 116.201L1719.31 112.656L1718.43 112.182L1717.55 111.708L1715.64 115.253L1716.52 115.727ZM1718.43 112.182L1719.41 111.989L1712.5 76.8977L1711.52 77.0909L1710.54 77.2841L1717.44 112.375L1718.43 112.182ZM1711.52 77.0909V78.0909H1715.72V77.0909V76.0909H1711.52V77.0909ZM1715.72 77.0909L1714.74 77.2719L1720.19 106.908L1721.18 106.727L1722.16 106.546L1716.71 76.9099L1715.72 77.0909ZM1721.18 106.727V107.727H1721.47V106.727V105.727H1721.18V106.727ZM1721.47 106.727L1722.36 107.186L1737.66 77.5495L1736.77 77.0909L1735.88 76.6323L1720.58 106.269L1721.47 106.727ZM1736.77 77.0909V78.0909H1741.34V77.0909V76.0909H1736.77V77.0909ZM1741.34 77.0909L1740.45 76.6214L1718.98 117.008L1719.86 117.477L1720.74 117.947L1742.22 77.5604L1741.34 77.0909ZM1719.86 117.477L1718.97 117.009C1718.09 118.684 1717.12 120.029 1716.08 121.066L1716.79 121.773L1717.5 122.48C1718.7 121.274 1719.78 119.756 1720.74 117.946L1719.86 117.477ZM1716.79 121.773L1716.08 121.07C1715.05 122.11 1713.96 122.864 1712.81 123.352L1713.2 124.273L1713.59 125.194C1715.01 124.591 1716.32 123.678 1717.5 122.475L1716.79 121.773ZM1713.2 124.273L1712.8 123.354C1711.66 123.845 1710.45 124.091 1709.18 124.091V125.091V126.091C1710.72 126.091 1712.19 125.792 1713.59 125.192L1713.2 124.273Z" fill="black" mask="url(#path-8-outside-1_11_28)"/>
<defs>
<linearGradient id="paint0_linear_11_28" x1="283.942" y1="82.7898" x2="313.812" y2="110.5" gradientUnits="userSpaceOnUse">
<stop stop-color="#76B9CA"/>
<stop offset="1" stop-color="#A7DFC4"/>
</linearGradient>
</defs>
</svg>
