<svg width="1801" height="402" viewBox="0 0 1801 402" fill="none" xmlns="http://www.w3.org/2000/svg">
<path d="M1304.26 334.751C1284.86 334.751 1267.93 330.808 1253.45 322.92C1238.96 315.034 1227.71 304.123 1219.7 290.19C1211.94 275.994 1208.06 259.3 1208.06 240.108C1208.06 220.655 1211.94 203.961 1219.7 190.028C1227.71 175.832 1238.96 164.922 1253.45 157.298C1267.93 149.41 1284.99 145.467 1304.64 145.467C1324.3 145.467 1340.98 149.148 1354.68 156.51C1368.64 163.607 1379.25 174.122 1386.49 188.055C1393.73 201.726 1397.35 218.288 1397.35 237.743C1397.35 240.108 1397.22 242.606 1396.96 245.235C1396.96 248.884 1393.89 251.544 1390.24 251.544H1252.54C1243.83 251.544 1236.77 244.482 1236.77 235.771C1236.77 227.059 1243.83 219.997 1252.54 219.997H1349C1350.96 219.997 1352.46 221.751 1352.15 223.688L1351.53 227.604C1351.13 230.092 1341.17 234.247 1341.88 231.828C1342.91 228.935 1343.43 226.571 1343.43 224.73C1343.43 215.792 1341.75 208.168 1338.39 201.859C1335.29 195.549 1330.76 190.554 1324.81 186.873C1318.86 183.192 1311.88 181.351 1303.87 181.351C1294.04 181.351 1285.77 183.586 1279.04 188.055C1272.58 192.262 1267.54 198.704 1263.92 207.378C1260.56 215.792 1258.75 226.306 1258.49 238.925C1258.49 251.018 1260.17 261.271 1263.53 269.685C1267.15 278.097 1272.45 284.539 1279.43 289.008C1286.41 293.477 1294.82 295.711 1304.64 295.711C1315.76 295.711 1325.2 293.607 1332.96 289.402C1336.36 287.502 1339.51 285.226 1342.4 282.57C1349.56 275.996 1359.29 271.745 1368.55 274.663L1372.27 275.835C1384.86 279.799 1390.81 294.506 1381.9 304.238C1375.3 311.447 1367.78 317.411 1359.33 322.131C1344.08 330.543 1325.72 334.751 1304.26 334.751Z" fill="white"/>
<path d="M1118.68 45.4978C1118.68 33.9205 1128.07 24.5359 1139.65 24.5359H1150.3C1161.88 24.5359 1171.26 33.9205 1171.26 45.4978V308.53C1171.26 320.107 1161.88 329.491 1150.3 329.491H1139.65C1128.07 329.491 1118.68 320.107 1118.68 308.53V45.4978Z" fill="white"/>
<path d="M1020.23 45.4978C1020.23 33.9205 1029.62 24.5359 1041.2 24.5359H1050.4C1061.98 24.5359 1071.36 33.9205 1071.36 45.4978V309.861C1071.36 321.438 1061.98 330.823 1050.4 330.823H1041.2C1029.62 330.823 1020.23 321.438 1020.23 309.861V45.4978ZM871.565 240.508C871.565 220.349 875.63 203.334 883.757 189.46C891.886 175.323 902.637 164.591 916.009 157.26C929.38 149.93 943.54 146.266 958.486 146.266C973.694 146.266 987.065 150.062 998.603 157.652C1010.4 165.245 1019.58 176.109 1026.13 190.246C1032.95 204.12 1036.36 220.873 1036.36 240.508C1036.36 259.879 1032.95 276.634 1026.13 290.771C1019.58 304.905 1010.4 315.77 998.603 323.362C987.065 330.955 973.694 334.749 958.486 334.749C943.54 334.749 929.38 331.085 916.009 323.754C902.637 316.424 891.886 305.691 883.757 291.555C875.63 277.418 871.565 260.403 871.565 240.508ZM924.268 240.508C924.268 251.241 926.496 260.533 930.955 268.388C935.411 276.242 941.442 282.262 949.047 286.45C956.65 290.639 964.779 292.733 973.432 292.733C981.035 292.733 988.378 290.771 995.456 286.842C1002.8 282.654 1008.7 276.634 1013.15 268.78C1017.88 260.927 1020.23 251.503 1020.23 240.508C1020.23 229.512 1017.88 220.089 1013.15 212.235C1008.7 204.381 1002.8 198.49 995.456 194.564C988.378 190.376 981.035 188.282 973.432 188.282C964.779 188.282 956.65 190.376 949.047 194.564C941.442 198.752 935.411 204.775 930.955 212.627C926.496 220.481 924.268 229.774 924.268 240.508Z" fill="white"/>
<path d="M718.816 260.357C718.816 272.104 721.158 281.239 725.843 287.765C730.528 294.03 738.074 297.162 748.486 297.162C755.772 297.162 762.019 295.726 767.223 292.854C772.688 289.723 776.851 285.415 779.715 279.933C782.838 274.452 784.4 267.926 784.4 260.357V171.686C784.4 160.109 793.784 150.724 805.362 150.724H813.797C825.372 150.724 834.759 160.109 834.759 171.686V310.777C834.759 321.996 825.927 331.225 814.721 331.72L810.357 331.913C804.127 332.187 798.32 328.768 795.537 323.188C790.651 314.514 777.824 314.521 770.359 321.107C767.905 323.272 765.297 325.209 762.539 326.92C753.691 332.139 742.889 334.751 730.138 334.751C708.796 334.751 692.792 328.615 682.12 316.348C671.711 304.079 666.506 287.243 666.506 265.839V171.686C666.506 160.109 675.89 150.724 687.468 150.724H697.854C709.432 150.724 718.816 160.109 718.816 171.686V260.357Z" fill="white"/>
<path d="M561.619 219.861C561.619 207.854 559.275 198.716 554.59 192.453C549.908 186.187 542.359 183.056 531.95 183.056C524.923 183.056 518.677 184.622 513.212 187.753C507.747 190.625 503.582 194.801 500.721 200.282C497.857 205.766 496.425 212.291 496.425 219.861V308.531C496.425 320.107 487.041 329.493 475.464 329.493H466.639C455.061 329.493 445.677 320.107 445.677 308.531V170.344C445.677 158.767 455.061 149.383 466.639 149.383H471.16C479.228 149.383 486.353 154.65 488.718 162.366L489.07 163.517C489.231 164.045 489.451 164.553 489.724 165.031C492.638 170.145 500.173 170.082 503.957 165.571C508.009 160.742 512.656 156.78 517.897 153.69C527.005 148.209 537.936 145.467 550.687 145.467C572.029 145.467 587.903 151.602 598.313 163.869C608.722 175.876 613.927 192.713 613.927 214.379V308.531C613.927 320.107 604.543 329.493 592.965 329.493H582.581C571.004 329.493 561.619 320.107 561.619 308.531V219.861Z" fill="white"/>
<path fill-rule="evenodd" clip-rule="evenodd" d="M234.21 20.853C248.128 15.9283 262.953 13.8141 277.821 14.7103C299.254 16.0033 319.849 23.4997 337.107 36.2877C354.364 49.0757 367.539 66.605 375.032 86.746C379.362 98.387 381.687 110.611 381.97 122.904H382V125.161C382 125.369 382 125.578 382 125.786V291.045C382 305.616 379.132 320.044 373.561 333.506C367.991 346.967 359.826 359.199 349.533 369.502C339.24 379.805 327.02 387.978 313.571 393.554C300.123 399.13 285.708 402 271.151 402C256.595 402 242.18 399.13 228.732 393.554C215.283 387.978 203.063 379.805 192.77 369.502C182.476 359.199 174.312 346.967 168.741 333.506C163.171 320.044 160.303 305.616 160.303 291.045V122.904H160.329C160.275 118.17 159.317 113.489 157.506 109.113C155.64 104.605 152.906 100.509 149.459 97.0587C146.012 93.608 141.921 90.8716 137.417 89.0042C132.914 87.1367 128.087 86.1757 123.212 86.1757C118.337 86.1757 113.51 87.1367 109.007 89.0042C104.503 90.8716 100.411 93.608 96.9648 97.0587C93.5174 100.509 90.7837 104.605 88.9181 109.113C87.1068 113.489 86.1492 118.17 86.0948 122.904H86.1204V310.675C86.1204 321.517 77.3404 330.306 66.5089 330.306C55.6773 330.306 46.8973 321.517 46.8973 310.675V122.904H46.8985C46.9537 113.018 48.9256 103.235 52.7066 94.0987C56.5419 84.8305 62.1627 76.4099 69.2493 69.3164C76.336 62.2229 84.7485 56.5966 94.0077 52.7576C103.266 48.9185 113.19 46.9427 123.212 46.9427C133.233 46.9427 143.158 48.9185 152.416 52.7576C161.675 56.5966 170.088 62.2229 177.174 69.3164C184.261 76.4099 189.882 84.8305 193.717 94.0987C197.498 103.235 199.47 113.018 199.525 122.904H199.527L199.527 123.331H199.527V291.045H199.567C199.567 300.454 201.418 309.772 205.015 318.466C208.613 327.159 213.886 335.058 220.533 341.712C227.181 348.366 235.072 353.644 243.757 357.245C252.442 360.846 261.751 362.699 271.151 362.699C280.552 362.699 289.861 360.846 298.546 357.245C307.231 353.644 315.122 348.366 321.77 341.712C328.417 335.058 333.69 327.159 337.288 318.466C340.885 309.772 342.736 300.454 342.736 291.045H342.776V123.353C342.713 122.778 342.665 122.201 342.634 121.624C342.248 114.424 340.776 107.287 338.237 100.461C333.398 87.4536 324.889 76.1327 313.745 67.875C302.6 59.6165 289.299 54.7755 275.459 53.9408C268.194 53.5021 260.945 54.1771 253.953 55.9098C243.429 58.5172 231.434 55.5223 226.076 46.0877C220.719 36.6522 223.988 24.4693 234.21 20.853ZM123.212 0C139.392 2.91351e-06 155.414 3.19039 170.363 9.38768C185.312 15.5858 198.895 24.6705 210.336 36.1228C221.777 47.5751 230.853 61.1714 237.045 76.1342C243.182 90.9664 246.368 106.853 246.423 122.904H246.424V291.045H246.309C246.309 294.31 246.952 297.544 248.2 300.561C249.448 303.577 251.278 306.319 253.585 308.628C255.892 310.937 258.631 312.769 261.644 314.018C264.658 315.268 267.889 315.911 271.151 315.911C274.414 315.911 277.645 315.268 280.659 314.018C283.672 312.769 286.411 310.937 288.718 308.628C291.025 306.319 292.855 303.577 294.103 300.561C295.351 297.544 295.994 294.31 295.994 291.045H295.879V123.897C295.55 122.557 295.271 121.22 295.027 119.917C294.036 114.633 291.903 108.215 287.946 104.581C283.988 100.946 278.96 98.6931 273.615 98.1605C264.836 97.2848 254.6 95.4967 250.037 87.9398L248.185 84.8731C242.598 75.622 245.584 63.2428 256.079 60.6951C263.038 59.006 270.275 58.4871 277.492 59.2075C291.251 60.5791 304.195 66.3778 314.383 75.7339C324.571 85.0891 331.456 97.4982 334.006 111.101C334.758 115.115 335.121 119.169 335.102 123.209V291.045C335.102 299.451 333.448 307.775 330.234 315.541C327.021 323.308 322.31 330.365 316.372 336.308C310.434 342.252 303.384 346.968 295.624 350.185C287.866 353.402 279.549 355.057 271.151 355.057C262.753 355.057 254.437 353.402 246.679 350.185C238.919 346.968 231.869 342.252 225.931 336.308C219.993 330.365 215.282 323.308 212.069 315.541C208.855 307.775 207.201 299.451 207.201 291.045V122.904H207.219C207.164 112.007 204.993 101.222 200.826 91.1516C196.604 80.9488 190.416 71.6789 182.615 63.8702C174.814 56.0623 165.553 49.8685 155.36 45.642C145.168 41.4163 134.244 39.2415 123.212 39.2415C112.18 39.2415 101.255 41.4163 91.0634 45.642C80.8705 49.8685 71.6096 56.0623 63.8085 63.8702C56.0082 71.6789 49.8203 80.9488 45.5978 91.1516C41.4306 101.222 39.2599 112.007 39.2047 122.904H39.2231V310.675H39.2402C39.2402 314.26 39.9454 317.809 41.3157 321.12C42.6859 324.432 44.6948 327.441 47.2272 329.975C49.7588 332.51 52.7654 334.521 56.0738 335.893C59.3822 337.264 62.9276 337.97 66.5089 337.97C70.0901 337.97 73.6356 337.264 76.9439 335.893C80.2523 334.521 83.2589 332.51 85.7905 329.975C88.3229 327.441 90.3318 324.432 91.7021 321.12C93.0723 317.809 93.7775 314.26 93.7775 310.675H93.7945V200.573C93.7945 189.731 102.575 180.943 113.406 180.943C124.238 180.943 133.018 189.731 133.018 200.573V310.675C133.018 319.418 131.297 328.075 127.955 336.151C124.613 344.229 119.713 351.567 113.537 357.749C107.361 363.931 100.03 368.835 91.9604 372.181C83.8916 375.526 75.2428 377.248 66.5089 377.248C57.7749 377.248 49.1262 375.526 41.0573 372.181C32.9876 368.835 25.6562 363.931 19.4803 357.749C13.3043 351.567 8.40484 344.229 5.06234 336.151C1.7207 328.075 0 319.418 0 310.675V122.904H0.000827547C0.0563159 106.853 3.24169 90.9664 9.3786 76.1342C15.5707 61.1714 24.6466 47.5751 36.0879 36.1228C47.5291 24.6705 61.1122 15.5858 76.0605 9.38768C91.0097 3.19039 107.032 0 123.212 0Z" fill="url(#paint0_linear_11_28)"/>
<rect x="1399.5" y="33.5" width="399" height="109" rx="54.5" stroke="white" stroke-width="5"/>
<path d="M1501.98 80H1497.75C1497.7 78.4091 1497.39 76.9394 1496.8 75.5909C1496.2 74.2273 1495.38 73.0379 1494.32 72.0227C1493.26 71.0076 1491.99 70.2197 1490.52 69.6591C1489.07 69.0985 1487.44 68.8182 1485.64 68.8182C1482.67 68.8182 1479.83 69.5985 1477.11 71.1591C1474.4 72.7045 1472.07 74.9773 1470.11 77.9773C1468.16 80.9773 1466.83 84.6439 1466.11 88.9773C1465.4 93.25 1465.52 96.8485 1466.45 99.7727C1467.39 102.682 1468.93 104.886 1471.07 106.386C1473.22 107.886 1475.74 108.636 1478.64 108.636C1480.48 108.636 1482.26 108.356 1483.95 107.795C1485.65 107.235 1487.21 106.455 1488.64 105.455C1490.06 104.439 1491.31 103.25 1492.39 101.886C1493.46 100.523 1494.3 99.0455 1494.89 97.4545H1499.16C1498.42 99.5909 1497.38 101.583 1496.05 103.432C1494.71 105.265 1493.14 106.871 1491.32 108.25C1489.52 109.629 1487.52 110.705 1485.34 111.477C1483.17 112.25 1480.87 112.636 1478.43 112.636C1474.46 112.636 1471.11 111.644 1468.36 109.659C1465.64 107.674 1463.7 104.879 1462.55 101.273C1461.41 97.6515 1461.25 93.3864 1462.07 88.4773C1462.87 83.6591 1464.41 79.4773 1466.68 75.9318C1468.97 72.3864 1471.77 69.6515 1475.09 67.7273C1478.41 65.7879 1482.02 64.8182 1485.91 64.8182C1488.39 64.8182 1490.62 65.2045 1492.59 65.9773C1494.56 66.7348 1496.23 67.8106 1497.61 69.2045C1499.01 70.5833 1500.08 72.1894 1500.82 74.0227C1501.56 75.8561 1501.95 77.8485 1501.98 80ZM1519.6 112.727C1516.54 112.727 1513.96 111.955 1511.87 110.409C1509.78 108.848 1508.3 106.689 1507.44 103.932C1506.57 101.174 1506.43 97.9924 1507.01 94.3864C1507.58 90.8712 1508.73 87.7803 1510.44 85.1136C1512.16 82.4318 1514.29 80.3485 1516.8 78.8636C1519.32 77.3636 1522.05 76.6136 1525.01 76.6136C1528.08 76.6136 1530.66 77.3939 1532.73 78.9545C1534.82 80.5152 1536.3 82.6742 1537.16 85.4318C1538.04 88.1894 1538.2 91.3788 1537.62 95C1537.04 98.5 1535.89 101.583 1534.16 104.25C1532.44 106.902 1530.32 108.977 1527.8 110.477C1525.3 111.977 1522.57 112.727 1519.6 112.727ZM1519.64 109.023C1522.13 109.023 1524.34 108.364 1526.28 107.045C1528.23 105.712 1529.85 103.939 1531.12 101.727C1532.39 99.5 1533.25 97.053 1533.69 94.3864C1534.1 91.8409 1534.05 89.5 1533.55 87.3636C1533.05 85.2273 1532.09 83.5152 1530.66 82.2273C1529.24 80.9394 1527.35 80.2955 1524.98 80.2955C1522.51 80.2955 1520.3 80.9697 1518.35 82.3182C1516.39 83.6515 1514.78 85.4394 1513.51 87.6818C1512.23 89.9091 1511.38 92.3485 1510.96 95C1510.54 97.5606 1510.57 99.9015 1511.05 102.023C1511.55 104.144 1512.51 105.841 1513.94 107.114C1515.38 108.386 1517.28 109.023 1519.64 109.023ZM1543.68 112L1549.5 77.0909H1553.43L1552.52 82.4545H1552.89C1553.9 80.6515 1555.31 79.2348 1557.11 78.2045C1558.92 77.1591 1560.96 76.6364 1563.25 76.6364C1565.64 76.6364 1567.52 77.2045 1568.89 78.3409C1570.25 79.4621 1571.16 81.0076 1571.61 82.9773H1571.91C1573 81.0379 1574.54 79.5 1576.52 78.3636C1578.51 77.2121 1580.77 76.6364 1583.32 76.6364C1586.55 76.6364 1588.93 77.6591 1590.48 79.7045C1592.02 81.75 1592.47 84.7197 1591.82 88.6136L1587.91 112H1583.86L1587.77 88.6136C1588.21 85.8561 1587.86 83.7879 1586.7 82.4091C1585.55 81.0303 1583.83 80.3409 1581.52 80.3409C1578.86 80.3409 1576.65 81.1591 1574.91 82.7955C1573.18 84.4167 1572.11 86.4924 1571.7 89.0227L1567.86 112H1563.73L1567.7 88.25C1568.08 85.8864 1567.74 83.9773 1566.68 82.5227C1565.64 81.0682 1563.92 80.3409 1561.52 80.3409C1559.9 80.3409 1558.38 80.7424 1556.95 81.5455C1555.55 82.3333 1554.35 83.4318 1553.36 84.8409C1552.39 86.2348 1551.76 87.8333 1551.45 89.6364L1547.73 112H1543.68ZM1596.44 125.091L1604.48 77.0909H1608.41L1607.32 83.75H1607.8C1608.44 82.7045 1609.26 81.6288 1610.28 80.5227C1611.31 79.4167 1612.59 78.4924 1614.12 77.75C1615.66 76.9924 1617.51 76.6136 1619.66 76.6136C1622.54 76.6136 1624.93 77.3636 1626.82 78.8636C1628.73 80.3636 1630.07 82.4697 1630.82 85.1818C1631.6 87.8939 1631.68 91.0455 1631.07 94.6364C1630.48 98.2424 1629.35 101.402 1627.69 104.114C1626.02 106.826 1623.98 108.939 1621.57 110.455C1619.18 111.97 1616.56 112.727 1613.71 112.727C1611.6 112.727 1609.9 112.348 1608.6 111.591C1607.31 110.833 1606.32 109.902 1605.64 108.795C1604.96 107.674 1604.47 106.583 1604.16 105.523H1603.8L1600.53 125.091H1596.44ZM1605.57 94.5682C1605.12 97.3864 1605.12 99.8864 1605.57 102.068C1606.03 104.235 1606.95 105.939 1608.32 107.182C1609.7 108.409 1611.52 109.023 1613.78 109.023C1616.1 109.023 1618.16 108.386 1619.98 107.114C1621.8 105.826 1623.32 104.091 1624.53 101.909C1625.74 99.7273 1626.57 97.2803 1627.03 94.5682C1627.45 91.8864 1627.44 89.4697 1626.98 87.3182C1626.53 85.1667 1625.62 83.4621 1624.26 82.2045C1622.89 80.9318 1621.04 80.2955 1618.69 80.2955C1616.41 80.2955 1614.37 80.9091 1612.55 82.1364C1610.75 83.3485 1609.25 85.0303 1608.05 87.1818C1606.85 89.3182 1606.03 91.7803 1605.57 94.5682ZM1646.72 112.795C1644.61 112.795 1642.75 112.386 1641.15 111.568C1639.54 110.735 1638.34 109.538 1637.56 107.977C1636.78 106.402 1636.57 104.492 1636.92 102.25C1637.22 100.523 1637.8 99.0682 1638.65 97.8864C1639.51 96.7045 1640.6 95.7348 1641.92 94.9773C1643.24 94.2045 1644.75 93.5985 1646.47 93.1591C1648.18 92.7197 1650.04 92.3864 1652.06 92.1591C1654.03 91.9167 1655.71 91.7045 1657.1 91.5227C1658.5 91.3409 1659.58 91.053 1660.35 90.6591C1661.13 90.2652 1661.59 89.6288 1661.74 88.75L1661.88 87.9318C1662.27 85.553 1661.91 83.6818 1660.78 82.3182C1659.66 80.9394 1657.78 80.25 1655.15 80.25C1652.63 80.25 1650.45 80.8106 1648.6 81.9318C1646.77 83.0379 1645.41 84.3333 1644.51 85.8182L1640.92 84.4318C1642.01 82.5227 1643.35 81 1644.94 79.8636C1646.53 78.7121 1648.24 77.8864 1650.06 77.3864C1651.88 76.8712 1653.67 76.6136 1655.44 76.6136C1656.78 76.6136 1658.13 76.7879 1659.51 77.1364C1660.89 77.4848 1662.13 78.0909 1663.22 78.9545C1664.32 79.803 1665.13 80.9924 1665.65 82.5227C1666.18 84.0379 1666.25 85.9621 1665.88 88.2955L1661.92 112H1657.88L1658.81 106.477H1658.56C1657.92 107.508 1657.04 108.508 1655.92 109.477C1654.81 110.447 1653.49 111.242 1651.94 111.864C1650.4 112.485 1648.66 112.795 1646.72 112.795ZM1647.74 109.091C1649.89 109.091 1651.84 108.614 1653.58 107.659C1655.34 106.705 1656.78 105.439 1657.9 103.864C1659.03 102.273 1659.76 100.523 1660.08 98.6136L1660.92 93.5682C1660.59 93.8561 1660.04 94.1136 1659.28 94.3409C1658.54 94.5682 1657.7 94.7727 1656.76 94.9545C1655.84 95.1212 1654.91 95.2652 1653.97 95.3864C1653.04 95.5076 1652.22 95.6136 1651.51 95.7045C1649.5 95.947 1647.74 96.3258 1646.24 96.8409C1644.75 97.3561 1643.56 98.0682 1642.67 98.9773C1641.78 99.8712 1641.22 101.023 1640.99 102.432C1640.64 104.553 1641.1 106.197 1642.38 107.364C1643.66 108.515 1645.45 109.091 1647.74 109.091ZM1680.34 90.1818L1676.73 112H1672.68L1678.5 77.0909H1682.43L1681.52 82.5682H1681.89C1682.98 80.7803 1684.48 79.3485 1686.41 78.2727C1688.35 77.1818 1690.6 76.6364 1693.16 76.6364C1695.49 76.6364 1697.46 77.1288 1699.07 78.1136C1700.69 79.0833 1701.84 80.5152 1702.52 82.4091C1703.22 84.303 1703.34 86.6288 1702.89 89.3864L1699.09 112H1695.05L1698.77 89.6364C1699.24 86.7879 1698.83 84.5303 1697.52 82.8636C1696.23 81.1818 1694.24 80.3409 1691.55 80.3409C1689.71 80.3409 1688.01 80.7348 1686.43 81.5227C1684.87 82.3106 1683.55 83.447 1682.48 84.9318C1681.4 86.4015 1680.69 88.1515 1680.34 90.1818ZM1709.18 125.091C1708.37 125.091 1707.63 125.015 1706.95 124.864C1706.28 124.712 1705.76 124.545 1705.38 124.364L1707.09 120.795C1708.36 121.235 1709.52 121.371 1710.59 121.205C1711.66 121.053 1712.68 120.538 1713.65 119.659C1714.62 118.78 1715.58 117.47 1716.52 115.727L1718.43 112.182L1711.52 77.0909H1715.72L1721.18 106.727H1721.47L1736.77 77.0909H1741.34L1719.86 117.477C1718.93 119.22 1717.91 120.652 1716.79 121.773C1715.68 122.894 1714.49 123.727 1713.2 124.273C1711.93 124.818 1710.59 125.091 1709.18 125.091Z" fill="white"/>
<defs>
<linearGradient id="paint0_linear_11_28" x1="283.942" y1="82.7898" x2="313.812" y2="110.5" gradientUnits="userSpaceOnUse">
<stop stop-color="#76B9CA"/>
<stop offset="1" stop-color="#A7DFC4"/>
</linearGradient>
</defs>
</svg>
